<?xml version='1.0' encoding='utf-8'?>
<svg xmlns="http://www.w3.org/2000/svg" viewBox="0 0 278.46 278.46"> <g transform="translate(-438.14 -332.86)"> <path transform="matrix(11.89 0 0 11.89 -2200 -2678.1)" d="m243.95 264.95c0 5.7184-4.6357 10.354-10.354 10.354s-10.354-4.6357-10.354-10.354 4.6357-10.354 10.354-10.354 10.354 4.6357 10.354 10.354z" fill="#000080" stroke="#000080" stroke-width="2.712"/> <path d="m541.46 606.73c-5.6751-1.521-12.317-3.798-17.649-6.0507-2.3728-1.0023-4.8439-2.0128-5.4915-2.2453-2.6368-0.94799-4.0771-1.6655-7.2559-3.6144-1.8332-1.1248-4.7895-2.9023-6.5691-3.9502s-3.2361-2.1136-3.2361-2.3671-0.48497-0.56393-1.0783-0.68846c-1.3401-0.28348-11.031-7.4796-11.323-8.4087-0.18224-0.58216-0.51669-1.3709-1.2659-2.9891-0.0911-0.19237 0.0371-0.22612 0.28348-0.0709 0.26324 0.162 0.5987-0.13499 0.82582-0.72997 0.21262-0.55212 0.45257-1.004 0.5393-1.004 0.41342 0 3.339 1.3617 5.2823 2.4582 1.8099 1.0216 6.7949 3.0248 7.5417 3.0309 0.11811 0 0.14849-0.57575 0.0675-1.2811-0.10799-0.93449 0.0743-1.4849 0.67395-2.0276 0.81131-0.7347 0.86058-0.73031 3.3738 0.30036 2.9597 1.216 2.9273 1.2099 2.9273 0.52209 0-1.0965 2.1444-1.5362 8.402-1.7225 5.854-0.17212 7.1799-0.0439 10.032 0.98376 0.32398 0.11812 0.732 0.17886 0.90782 0.14174s0.82076 0.28686 1.4333 0.72221 1.3094 0.79275 1.5487 0.79275 0.74178 0.16199 1.1164 0.35739 1.7394 0.56832 3.034 0.82548c2.9364 0.58419 3.8881 1.033 5.3663 2.5318 1.003 1.0168 1.143 1.4066 0.97296 2.708-0.23287 1.7606 0.17886 2.876 1.9743 5.396 1.0813 1.517 1.2956 2.1676 1.2956 3.933 0 2.1184 0.86362 4.0987 1.5912 3.6489 0.19912-0.12487 0.28011 0 0.18224 0.28686-0.0979 0.28011 0.87273 1.5696 2.1582 2.8639 1.3307 1.3405 2.3381 2.7022 2.3401 3.1632 0 0.95913-2.1582 2.1315-3.9317 2.1315-1.1846 0-1.6543 0.91356-0.67327 1.3094 1.4961 0.60342-1.6651 0.0439-5.393-0.95575z" fill="#008000"/> <path d="m656.97432,585.90524c0-.28348.72188-1.26555 1.59866-2.18283s2.27564-2.5733 3.10787-3.68092c1.40561-1.871 1.4721-2.07551.94023-2.88783-.62435-.95272-.64527-2.55576-.0709-5.29476 .52714-2.50479 1.46973-4.28063 2.9992-5.65013 1.70023-1.52306 4.96335-6.44624 5.68252-8.57373 .5231-1.54736.50589-1.70766-.29023-2.65329-.73976-.8788-.83628-1.42653-.76406-4.32112 .0472-1.82308.19236-3.90771.32736-4.63295 .13162-.72492.27336-2.76533.31386-4.53408 .0641-2.8632.18899-3.3539 1.12685-4.46927l1.05463-1.2524-1.10863-1.21392c-2.03805-2.23177-1.9142-3.67485.87341-10.15619 .57709-1.34183.56528-1.39448-.52175-2.31614-.89264-.75664-1.06813-1.16398-.88927-2.05932 .14512-.72322.0607-1.11571-.23961-1.11571-.25311,0-.35537-.1755-.22274-.39216s-.10462-.39215-.52613-.39215c-.61894,0-.76136-.25649-.73133-1.32361 .0338-.89568-.29698-1.71947-.99456-2.54968-.84168-1.00063-.98983-1.4866-.80287-2.63877l.22949-1.41202-1.19907.62029c-.65944.34085-1.27231.83932-1.36174,1.10728-.32399.97363-2.56622-1.35061-2.85611-2.96107-.15187-.83055-.60646-1.79642-1.01549-2.14639s-.74313-1.03843-.74313-1.52981c0-.8113-.39722-1.09107-1.31618-.92605-.18225.0337-.54335-.11474-.79748-.32398-.61556-.51061-2.9695.0405-4.67446,1.09412-1.61992,1.00097-1.84063,1.02291-1.84063.18224 0-.59397-.0641-.59195-.74853.0337-.72525.65606-.74651.63041-.67159-.82245 .0405-.82514.23623-1.75423.4259-2.06471 .22274-.35875.18561-.61827-.0979-.71344-.33073-.11137-.32398-.37292.0337-1.00367 .26323-.46978.5042-.91188.53828-.98208s.37731-.17211.76339-.23286 .77755-.33411.87104-.61354c.11137-.34052-.0338-.40633-.3709-.19574-.29698.17212-.4043.16199-.23623-.0337 .16874-.18224.66619-.38979 1.10863-.45729 1.00603-.15186 1.92094-1.0418 1.92094-1.86492 0-.37933.45459-.71749 1.15149-.85653 .63346-.12825 1.24531-.47518 1.36039-.77486 .11475-.30036.42152-.54436.68206-.54436s.0574.44143-.44852.98072c-.90209.96014-.61185,1.43531.31049.51129 .36414-.36415.59835-.29699 1.04653.29361 .33411.44311.58249.55448.58992.26661 0-.34558.3422-.41578 1.09074-.22949 .97836.24299 1.02797.20924.53255-.39452-.75225-.91322-.40296-1.11065.83155-.46977 .88319.45796 1.00334.4556.82278-.0337-.11474-.30373-.0337-.55111.19237-.55111 .21936,0 .46066.14849.53221.33073s.71344.44346 1.42485.58216c.87273.17212 1.20987.11474 1.03573-.16874-.14174-.23286.29023-.13162.96081.21261 1.2335.63784 1.70597,1.27332.64426.86598-.31724-.12149-.68037-.0506-.8076.15524s.0337.37495.36009.37495 .75563.29361.95609.65134c.32736.58148.41342.55921.82211-.20587 .25311-.47011.35098-1.02763.21936-1.23923-.50386-.81502.43738-.29699 1.18186.651 .43131.54909 1.12078,1.33036 1.53217,1.73567 .69353.68239.69893.75563.0743.99456-.53626.20587-.25311.56259 1.40899,1.76368 2.88783,2.08902 4.1571,2.12581 1.88517.054-.78701-.71715-1.06745-1.24227-.8464-1.5838 .25648-.39823.84269-.23286 2.64754.74111 1.27467.6888 2.58208,1.4748 2.90539,1.74681s1.24261.57979 2.04177.68374c1.5649.20586 1.85885.43366 3.62557,2.83012 1.5325,2.07889 2.99279,3.33264 3.88138,3.33331 1.10998,0 2.9695,1.16634 5.47565,3.43253 1.25273,1.13226 2.45147,2.05898 2.66408,2.05898s.76507.35301 1.2281.78431c.46674.43468 1.38401.78431 2.05797.78431 1.04788,0 1.38705-.28349 2.45484-2.05898 .68172-1.13259 2.06944-3.86822 3.08391-6.07907s2.03873-4.02413 2.27565-4.02852c.45796,0 3.10854-3.89826 4.25261-6.23937l.55539-1.43403-.11127,1.79851c-.74009,5.41895-4.40987,17.96114-7.53665,25.75664-7.74116,19.29926-20.4396,37.54557-35.63271,51.19875-7.01558,6.3045-14.24378,11.80175-14.23568,10.82609l-.004.0296z" fill="#008000"/> <path d="m671.32643,546.86396c-.13162-.13162-.22274.10124-.20586.51466 .0337.45695.11136.54976.23623.23623 .11137-.28348.0979-.6213-.0338-.75123z" fill="#008000"/> <path d="m656.7742,499.69272c-.13162-.21599-.4529-.38945-.70973-.38641-.28011,0-.23286.15524.1215.38641 .75359.48699.88926.48699.58823,0z" fill="#008000"/> <path d="m484.43 569.22c-0.30373-0.11474-1.8008-1.1744-3.3245-2.3516s-3.4038-2.464-4.1777-2.8585c-2.5581-1.305-3.906-2.874-3.906-4.5472 0-1.3165 0.0709-1.4265 0.5771-0.91863 0.47889 0.47855 1.4319 0.52917 5.586 0.29699l5.0086-0.28011 1.8052 1.2446c2.5483 1.7569 4.064 3.9843 3.989 5.8624-0.0844 2.0988-0.3547 2.386-1.9706 2.0826-1.1721-0.21937-1.5163-0.11137-2.2105 0.7104-0.45256 0.53356-1.0718 0.87542-1.3766 0.75933z" fill="#008000"/> <path d="m469.36427,546.4961c-.14511-.14512-.25986-.44413-.25986-.66686 0-.24637.18224-.22274.4637.0574 .25311.25311.37326.55549.25986.66686s-.3206.0877-.46403-.0574z" fill="#008000"/> <path d="m624.8089,537.30275c0-.23961.25311-.33748.56596-.21599s1.14946.054 1.8629-.14174c1.19064-.32736 1.23451-.31049.53592.21599-.89095.67361-2.96478.77283-2.96478.14174z" fill="#008000"/> <path d="m576.95966,521.24332c-.46538-.61354-1.19705-.81434-3.5007-.96115-1.60203-.10124-3.48045-.29023-4.17465-.42185s-1.63004-.0405-2.07957.19911c-.76642.41005-2.10622.0337-2.79536-.79612-.108-.13161-1.40629-.99489-2.8848-1.92432-2.43696-1.53116-2.95094-1.69888-5.49117-1.79135-1.54128-.0574-3.24321-.26999-3.78284-.47079s-1.2011-.29024-1.47075-.19574-.49002-.0337-.49002-.25311c0-.23287-.24636-.42489-.54639-.42489-.63446,0-1.02257-.83595-1.02257-2.20174 0-1.0877-.92976-1.62902-1.69956-.98983-.63683.52816-4.30154.14512-5.94846-.62164-1.67695-.78094-2.94183-1.52137-3.42375-2.0033-.22949-.22949-.91087-.31723-1.51496-.19574-1.31551.26324-3.48316-.94832-4.66333-2.6057-.94866-1.33204-1.07522-3.53951-.20249-3.53951 .32398,0 .58823-.0574.58823-.12487 0-.36414-1.32124-4.55095-1.75491-5.56204-.27673-.64696-.86429-2.32391-1.30369-3.72581-.73774-2.35731-.75022-2.603-.16199-3.25771 .52006-.57912.54875-.84843.15524-1.47581-.53592-.85822-.23286-2.69345.45864-2.76499 .24636-.0337.71242-.0337 1.03607.0337 .43839.0405.41105-.0506-.10799-.36988-.38203-.23287-.6041-.57305-.49307-.75259s-.49407-.60511-1.34452-.94529-1.9412-1.15317-2.42414-1.8062c-.93483-1.26421-1.81903-1.49674-2.65733-.69792-.42051.4006-.46404.32399-.23624-.42522 .27336-.90817.26998-.91019-.76035-.23624-1.19671.78397-2.24898.26324-1.21021-.59937 .7644-.63413.77351-2.26045.0338-4.0562-.56292-1.34723-.54976-1.41607.4151-2.11871 .89163-.64932.95136-.84674.56596-1.86088-.23624-.624-.33748-1.38232-.21936-1.68606 .42185-1.09951-.25987-2.39882-1.5882-3.02924-1.61114-.76473-1.6594-1.19907-.29023-2.62797 .91998-.96014.99186-1.21426.59194-2.09138-.35064-.7698-.34322-1.17916.0338-1.78427 .38608-.62299.38676-.84809 0-1.08736-.6618-.41207.46573-2.02726 1.41506-2.02726 .37933,0 1.28649-.66214 2.01646-1.47108 1.27906-1.41844 1.53521-2.59052.74482-3.41229-.19574-.20586-.3584-.93786-.3584-1.62869 0-1.04282.19911-1.32529 1.1768-1.66581 .64729-.22611 1.17646-.6807 1.17646-1.01143s.42624-.70838.94698-.83865c.88656-.22273 1.37355-1.00637 1.99452-3.20945 .19911-.70466.0911-.88252-.53863-.88252-.43332,0-.89702-.17549-1.02999-.39215-.14512-.23286.30036-.39215 1.08804-.39215 1.56862,0 2.00869-.32061 1.4181-1.0327-.54166-.65235 1.55714-2.88952 2.71032-2.88952 .42152,0 .98916-.26999 1.26083-.59566 .40329-.48597.37461-.72795-.15524-1.31415-.61287-.67699-.57001-.80726.72998-2.22671 1.51934-1.65839 1.57401-1.82949.9571-2.98267-.61996-1.1579-.108-1.37693.74718-.32061l.73571.90783 2.6219-1.44105c1.44172-.79241 2.87974-1.44071 3.19596-1.44071s.57473-.17549.57473-.39249c0-.21262.24299-.39182.54031-.39182s.76035-.26661 1.02898-.58857c.63177-.76136 1.17646-.75157 1.17646.0337 0,.98511 3.71366.49104 6.20765-.82548 1.61722-.85349 2.1609-.98882 2.40287-.59734 .20924.33748.62367.40396 1.24363.20248 1.36174-.44446 3.56077-.22273 4.28534.43434 .3466.31386.88961.57001 1.20684.57001s.76305.18562.99051.41342c.29024.29023.83189.21261 1.81161-.25311 1.34992-.64392 1.44813-.63785 2.83282.17886 .78937.46573 1.58043.75664 1.75862.64628 .39519-.24299 1.1849,1.90779 1.1849,3.22903 0,.52782-.61793,2.26147-1.37288,3.85236-1.51664,3.19562-1.6702,4.77908-.66382,6.83739 .68407,1.3992 1.53453,1.56591 1.3128.25648-.0877-.53626.0641-.67125.59498-.52343 .39452.11137 1.56221.31386 2.59524.45425s2.5328.53288 3.33365.87205c1.97258.83527 8.29801,2.03603 8.55281,1.62363 .11474-.18224.90074-.33073 1.75086-.33073 1.11234,0 1.54567-.16537 1.54567-.58857 0-.7995 1.73027-.76271 2.54731.054 .56427.5646.83392.57912 2.21523.12486 1.28244-.42354 1.63038-.4259 1.88552-.0337 .24973.40599.49812.38473 1.24463-.10462 .51264-.33749 1.10863-.59667 1.32394-.57946 1.38773.11137 4.55331,1.36545 5.86241,2.32525 .85146.62434 1.79675,1.13529 2.10049,1.13529s1.0769.44109 1.71778.98039 1.55141.98038 2.02321.98038c.90715,0 2.0124,1.97326 2.49736,4.45949 .135.67497.55482,1.96989.93989,2.8767s.7941,2.44708.9085,3.42241 .43333,2.15381.70804,2.61852c.39789.67328.39992.88117 0,1.02257-.9328.33782-.50184.98444.49036.73538 .63278-.15862.98039-.081.98039.21936 0,.25311.13162.33411.29023.17549s.29024-.57237.29361-.91863 .47821-.75663 1.0786-.91727c.89534-.23961 1.23653-.0945 2.05897.88285 .542.64425.99591,1.2902 1.0084,1.43565 .0338.14512.0945.96182.18224,1.81464 .108,1.02865-.0405,1.77313-.43434,2.2095-.57912.63986-.60814,2.39882-.0472,2.95803 .41882.41848.33074,2.44877-.14511,3.33668-.786,1.46906-1.59123,5.23638-1.36512,6.38854 .16537.83898 0,1.38064-.59262,2.01781-.45729.48631-.651.97363-.43906,1.10424s.66686-.20586 1.01919-.7428c.76879-1.17342 1.79878-1.28378 1.79878-.19236 0,.44885.25987.78431.61118.78431 .33749,0 .50252-.1755.36921-.3925-.13162-.21261-.054-.39181.17212-.39181s.41544.17549.41544.39181c0,.56765 1.46669.48328 1.70259-.0979 .1485-.36853.30036-.34423.60815.0979 .25648.36853.26661.63751.0337.71918-.44481.15187-.51804,1.24193-.0844,1.24193 .25649,0 .786,1.25577 1.30944,3.11463 .0911.32735-.17212.63176-.62502.72423-.43164.0877-.93955.30711-1.12922.48564-.50656.47956 1.75424,2.42515 2.57027,2.21152 .84809-.22274 1.79102.73639 1.02628,1.04316-.31386.12487-.23624.21261.20249.23286 .39047.0338.60072.20924.46741.4232-.13499.21599-.0911.39249.0945.39249s.76979.86733 1.29795,1.92669c.66214,1.32934 1.09682,1.81329 1.40191,1.56052 .29698-.24636.50993-.108.64965.42658 .11474.43602.0776.79274-.0776.79274s-.19912.74989-.0945,1.66683c.32399,2.86319.21262,4.26982-.36279,4.63565-.87948.55651-1.64793.43366-1.39583-.22274 .15187-.39991-.0337-.58789-.54672-.58789-.83695,0-.99422-.40498-.39148-1.0084 .58013-.57946-3.64109-5.11758-5.25662-5.6508-.73402-.24299-2.71707-1.22911-4.4065-2.1933s-3.64515-1.96144-4.34644-2.21624-1.27467-.6041-1.27467-.77655-.353-.31386-.78431-.31386-.78464-.25986-.78464-.57844c0-.6942-2.20174-1.91454-2.79435-1.54871-.62772.38811-6.20056,1.73466-7.17791,1.73466-.4691,0-1.02021.16199-1.22506.35908-.20587.19574-.81367.41848-1.35331.49003-.6753.0911-1.02021.41274-1.10863,1.03505-.0709.51095-.52444,1.0543-1.04045,1.25071-.5015.18899-1.05936.57811-1.23924.86126-.4826.75933-1.69112,5.21713-2.26619,8.35876-.27336,1.50989-.79241,3.27459-1.14744,3.92188-.35469.64695-.64594,1.68133-.64729,2.29825 0,.81974-.5042,1.61215-1.8656,2.94183-1.0246,1.00097-2.33302,2.5517-2.90741,3.44603-.87813,1.36782-1.31517,1.67223-2.74542,1.91015-2.5382.42253-4.58301,1.34487-4.85029,2.18722-.31049.97904-1.77685.94563-2.53753-.0574z" fill="#fff"/> <path d="m652.26341,518.68824c0-.43028-.22949-.54199-.76271-.37258-.68947.21937-.74043.0979-.52748-1.248 .12824-.82009.38473-1.54939.56697-1.62161s.33073-.37426.33073-.67226 .35267-.73099.78431-.96183c.4637-.24973.78431-.26661.78431-.0472 0,.20586-.21262.44446-.47349.53119-.31723.108-.20249.44953.34929,1.04147 .78229.83932.79342.96014.21599,2.42414-.61489,1.56524-1.27062,2.04312-1.27062.92571z" fill="#008000"/> <path d="m653.44021,516.14228c0-.22949-.17549-.30711-.39215-.17212-.21262.13162-.39216.32061-.39216.41544s.17549.17212.39216.17212 .39215-.18899.39215-.4151z" fill="#008000"/> <path d="m632.65907,506.87367c0-.17549.17549-.58216.38642-.90547 .32736-.50723.38102-.49711.38608.0709 0,.36481-.17212.77249-.38608.9058-.21599.13162-.38946.10124-.38642-.0743z" fill="#008000"/> <path d="m490.87032,503.81068c0-1.6.66012-1.79912 1.30134-.39182 .36684.8049.34321.98039-.13162.98039-.32061,0-.5798.17549-.5798.39215s-.13161.39216-.29361.39216-.29361-.61759-.29361-1.37288z" fill="#008000"/> <path d="m633.04549,503.65881c0-.21598.17549-.50116.39215-.63446 .21599-.135.39216-.0675.39216.14849 0,.21261-.17549.5015-.39216.63447-.21261.13161-.39215.0675-.39215-.15187z" fill="#008000"/> <path d="m660.5,494.59202c0-.21599.17549-.39249.39216-.39249s.39215.17549.39215.39249-.17549.39181-.39215.39181-.39216-.17549-.39216-.39181z" fill="#008000"/> <path d="m627.65 492.24c-0.87981-0.71715-1.1798-1.574-0.5511-1.574 0.51196 0 1.7272 1.4758 1.572 1.9085-0.0743 0.21262-0.53525 0.0607-1.0209-0.33411z" fill="#008000"/> <path d="m596.28423,442.58365c.13162-.13162.46843-.14511.75157-.0337 .31386.12487.21937.21599-.23623.23624-.41342.0337-.64493-.0742-.51466-.20586z" fill="#008000"/> <path d="m443.78 431.45c0.53694-1.981 2.2827-6.7004 2.4255-6.5576 0.17886 0.17886-2.0931 6.9784-2.4424 7.3051-0.13499 0.13161-0.13162-0.20924 0.0337-0.74753z" fill="#008000"/> <path d="m446.55 423.6c0.65202-2.1751 3.4082-8.4698 3.9469-9.0128 0.31723-0.32061-0.41274 1.71-1.6199 4.5098-2.1484 4.9816-2.9152 6.4655-2.3269 4.503z" fill="#008000"/> <path d="m473.0871,422.65013c0-.19574-.32735-.26999-.73031-.16537-.49677.13162-.79578-.0607-.9355-.59397-.17549-.6726-.44919-.75798-1.9169-.59768-.94157.10125-2.4437.37089-3.33769.59633s-2.00566.29024-2.47004.14175-1.07724-.0743-1.36174.16199c-.38371.31723-.64493.27673-1.00974-.16199-.27336-.32736-.68577-.5933-.92201-.5933-.60274,0-2.30264-2.05223-1.92601-2.32525 .17212-.12487.59262-1.54769.93922-3.16558 .60308-2.81427 2.21084-7.07363 3.91344-10.36442 .54537-1.05497.80051-2.31715.81029-4.0076 .0337-2.06741.13162-2.50614.75495-2.70289 .80692-.25649 1.01819-.96655.28686-.96655-.27336,0-.18899-.29024.19574-.71715 .3574-.39452.64932-1.10661.64932-1.58212 0-1.48897 1.96144-4.87493 4.00794-6.91771 1.52879-1.52677 2.14976-2.53786 2.80211-4.56512 .461-1.43261 1.01481-2.63641 1.23012-2.67522 .6176-.11474 1.76503-1.2659 1.76503-1.77549 0-.41443 3.83481-4.25295 6.84381-6.85055l1.15688-.99861-.74414,1.26285c-.93213,1.58145-.63346,1.91926.89264,1.01076 8.05232-4.79494 9.12079-5.65552 9.09548-7.32674 0-.45661-.26324-1.1606-.569-1.56456-.53018-.70095-.67395-.65067-3.09741,1.07859-3.22025,2.29792-3.75449,2.29994-1.22371,0 1.19739-1.08602 1.57908-1.5973.98039-1.31213-.5393.25649-1.83152,1.28412-2.87164,2.28374-1.57503,1.51361-1.81194,1.64084-1.41776.76102 .82211-1.83522 17.43467-14.49452 18.12043-13.80875 .25311.25311 5.76656-2.15753 6.6646-2.91619 .37865-.32061.78498-.4853.9031-.36752 .20249.20249-2.20578,1.87236-2.69952,1.87236-.12824,0-1.07691.49339-2.11129,1.09681s-2.85071,1.50922-4.03696,2.01376c-2.20072.9355-6.4098,3.60667-6.87856,4.36567-.41106.6645.12824.92267.78971.37595 .37258-.31048.59734-.33883.59734-.081 0,.22949-.17549.52647-.39182.65977s-.39215.40836-.39215.61152c0,.62232 1.45252.41106 2.85172-.41476 1.17377-.69218 1.58549-.73571 3.53952-.37461 2.00262.37056 2.44978.31386 4.72475-.59633 1.48357-.59363 3.21586-.98848 4.22899-.96452 3.59182.0844 8.7391-.43434 9.04351-.91357 .20586-.32398.31048-.20924.31385.35031 0,.49002.57406,1.26961 1.37862,1.88315 .75495.57574 1.37288,1.30268 1.37288,1.61553s.15186.56832.3341.56832c.57069,0 .23287,4.81688-.46606,6.5917-.71985,1.8359-.98376,5.24785-.51297,6.62714 .24636.72052.0472,1.02257-1.20414,1.81126-.82514.52108-1.8494,1.59562-2.27598,2.38836-.48496.90041-1.14373,1.51766-1.75659,1.64489-.53896.11475-1.34217.27674-1.78427.36313s-1.09952.77824-1.46434,1.54432c-.36347.7617-.88555,1.38469-1.16026,1.38469-.27674,0-1.36005.45796-2.41097,1.01751-1.491.79376-2.22367.96115-3.33061.76136-3.8149-.68846-7.49852-.22949-7.49852.93449 0,.21936-.26661.29698-.58857.17211-.42793-.16536-.58823.0473-.58823.77351 0,1.26894-.19237,1.37221-2.73597,1.4883-3.72412.17211-7.94298,3.68834-10.99078,9.16635-2.67792,4.81351-3.51319,6.70105-3.52163,7.96121 0,.80455-.54469,2.13153-1.4262,3.50914-1.59393,2.49163-2.50445,4.79427-2.50445,6.33217 0,1.25274-1.32665,3.904-2.42582,4.8476-.87307.74988-1.49674.88758-1.49674.33073z" fill="#008000"/> <path d="m499.30299,387.12723c0-.21599-.17549-.39249-.39249-.39249s-.39215.17549-.39215.39249c0,.21262.17549.39182.39215.39182s.39249-.17549.39249-.39182z" fill="#008000"/> <path d="m451.45376,412.42456c0-.32398.17211-.58857.37966-.58857s.27674.26324.15187.58857c-.12487.32398-.29361.58823-.37967.58823-.0844,0-.15186-.26324-.15186-.58823z" fill="#008000"/> <path d="m453.83 408.59c-0.0337-0.5636 1.873-4.0491 2.5004-4.5698 0.34018-0.28348 0.6186-0.74651 0.6186-1.0313 0-0.55077 1.5227-3.3083 1.8268-3.3083 0.0979 0 0.0709 0.17549-0.0607 0.3908-0.13162 0.21262-0.31386 0.76305-0.40093 1.2186s-0.65134 1.4586-1.2524 2.2294-1.57 2.2959-2.1528 3.3897-1.0688 1.8501-1.0789 1.681z" fill="#008000"/> <path d="m462.44 394.66c0-0.74482 1.0148-2.5983 1.7897-3.2412 0.54774-0.45526 0.51972-0.27336-0.15524 1.0091-1.1886 2.2537-1.627 2.8527-1.6344 2.2321z" fill="#008000"/> <path d="m464.80084,390.38461c0-.25649.4394-.96385.99186-1.56895 .66146-.72492.87205-.83291.61692-.31724-.61726,1.25037-1.59494,2.39646-1.60878,1.88484z" fill="#008000"/> <path d="m499.55374,388.49808c.13162-.3341.56157-.78397.96284-.99894 .58654-.31386.68374-.27336.4961.21599-.12825.3341-.56157.7843-.96284.99894-.58654.31386-.68374.27336-.4961-.21599z" fill="#008000"/> <path d="m519.11 387.1c-0.64696-0.41308-1.5737-0.95811-2.059-1.2109-1.1984-0.62366-1.111-0.96115 0.3854-1.4829 0.6969-0.24299 1.8423-0.99861 2.545-1.6796l1.2767-1.2379 0.98511 0.92538c1.0614 0.99692 1.2882 2.6864 0.60241 4.4888-0.46978 1.2355-1.9851 1.3155-3.7356 0.19574z" fill="#008000"/> <path d="m556.56528,378.14717c0-.50049-.31048-.81468-.88285-.89602-1.08265-.15186-1.01616-1.56895.13161-2.8011 .41308-.44311.7509-.90614.7509-1.02831s.48564-.44075 1.07893-.70803c1.41405-.6365 4.01975-3.13116 4.01975-3.84899 0-.31048.17549-.56359.38473-.56359s.49576-.44143.63076-.98073c.24973-.99051 1.08703-1.31145 1.53486-.58654 .13162.21599.65371.29023 1.15554.16537 .72964-.18562 1.02662.001 1.48628.922 .54165,1.08601.51196,1.23451-.52884,2.63033-.60679.81367-1.61755,1.94221-2.24628,2.50817s-1.26691,1.60068-1.4181,2.29893c-.33748,1.55815-1.89125,2.84835-3.43084,2.84835-.63211,0-1.49066.18224-1.90779.40599-.63076.33748-.759.27336-.759-.36482z" fill="#008000"/> <path d="m569.43651,367.49927c-.0742-.22611-.53086-.4394-1.01312-.47585-.98174-.0743-1.08737-.31386-.42691-.97634 .33849-.33815.0776-.66821-1.04114-1.33001-1.47412-.86936-1.48188-.88657-.64628-1.44105 1.37592-.9139 1.05194-2.16833-1.0175-3.94112-1.75694-1.50517-1.8052-1.59663-.84742-1.60979 .68137,0 1.4478.461 2.3293,1.43025 .74077.81401 1.38165,1.24193 1.46838.98072 .21937-.65674.87375-.57642.87375.108 0,.75562 2.53415,1.22033 3.71669.68137 1.02898-.46842 1.38199-.27336 1.38199.77453 0,.39552.20586.71883.4529.71883 .25648,0 .14512.33985-.25649.78431-.3908.4313-.9355.78431-1.21122.78431-.27336,0-.62097.39755-.76744.88285-.27673.91728-2.07315,3.03937-2.57262,3.03937-.15525,0-.34761-.18562-.42253-.40937z" fill="#008000"/> <path d="m542.74 345.27c0.91661-0.0844 2.4164-0.0844 3.3336 0s0.16874 0.1485-1.6668 0.1485c-1.8339 0-2.5838-0.0675-1.6668-0.1485z" fill="#008000"/> <path d="m523.70875,343.60478c.13162-.12824.46842-.14512.75157-.0337 .31386.12487.21936.21599-.23624.23624-.41341.0338-.64526-.0742-.51466-.20586z" fill="#008000"/> <path d="m571.37062,338.21662c.48564-.0911 1.27973-.0911 1.76537,0 .48496.0911.0878.17211-.88285.17211s-1.36782-.0742-.88252-.17211z" fill="#008000"/> <path d="m574.41032,337.31655c.43131-.18561 1.13766-.33073 1.56896-.32398 .63075,0 .59228.0709-.19574.32398-1.34149.42962-2.3725.42962-1.37288,0z" fill="#008000"/> </g> </svg>