<?xml version='1.0' encoding='utf-8'?>
<svg xmlns="http://www.w3.org/2000/svg" viewBox="0 0 1024 641"> <path d="m747 126-1-3h1l1 1h1v1h1v1h1v1h1v1l4 2q3 2 6 2 2 0 2 1h1v1h-1v1h1q0 1 1 1h-12q-13 0-13 1v1h-1q-2 0-6-2l-4-2h-2l-2-2h-2v-1h-1v-1h-1l4-1 3-1h1l8 1q7 1 8 1h2v-1q0-1-1-3z" fill="#869142" fill-rule="evenodd" stroke="#869142"/> <path d="m108 215 2-1 2 2q2 1 2 2v1l-1 1v1q0 1-1 1t-2 1h-2q0-1-2-2l-1-1q1-1 1-2 0-2 2-3z" fill="#a29c29" fill-rule="evenodd" stroke="#a29c29"/> <path d="m768 131h1l3 2 3 3v1h-5q-1-1-2-1h-2q0-1-1-1v-2l1-1q2 0 2-1z" fill="#ebe9d5" fill-rule="evenodd" stroke="#ebe9d5"/> <path d="m868 344-1-1 5 2q5 1 6 2h1l9-1q9 0 10-1l2-1h1l3 2q3 2 7 2 4-2 5-2v-3l2 1h10q8 0 9-1h1v1q0 2 3 3t3 2h1v1q-1 0-1 1v5q0 4 3 6t5 3h2v1h1l6-1q6-1 7-1h1v-1h1v-1h1v1l1 1v7h-1v1h-1v1l-5 3q-5 2-6 5-1 2-4 7-3 4-9 8t-18 4q-13 0-14 1l-1 1q-1 0-1 1v2q0 1-42 1-41 1-42-2v-2h-4q-5 0-8-2-3 0-6-4l-4-4v-1q0-1-1-1h-3l-6 6v1l-1 1h-1v1q-1 1-2 1h-10q-7 0-7 1t-1 1-9 2h-8v1q-1 0-1 1h-1l-1-1v-1h-1l-1-1v-1h-1q-1-1-5-12-6-10-10-10-5 0-8-3l-3-2q0-1-1-1-2 0-3-2l-1-3v-1l-2-2v-2l-3-1q-3-1-1-3 1 0 0-1v-1h-1l-1-1h-2v-2h2l1-1h9q5 0 4 2 0 3 3 4 4 0 3 2l-2 2v1h-1v1h1l2 1 3 1h4v-5q-1-5 0-7l1-2v-1l2-2v-2h1v-1h1v5l3 5q3 4 7 9 4 4 4 5v1h1v1h1l1 1h1l3-5q3-4 6-7 4-3 14-3t15 5 6 5h1l3-4q4-4 7-5t11-1q7 0 11 4 4 2 4 3h1v1h2l3-6q3-5 8-9 5-5 6-5t2-1l1-1h1q1 0 1-2z" fill="#f4b841" fill-rule="evenodd" stroke="#f4b841"/> <path d="m664 218v-1l1 1q1 0 1 1t-2 1-2 2v2q-1 0-2 1v2h-2v-2l-1-1v-2h1v-3q0-3 3-1 3 1 3 0z" fill="#ee703c" fill-rule="evenodd" stroke="#ee703c"/> <path d="m150 143v-1l14 2q14 2 22 5l7 3h-1q-2 0-2 2 0 1-4 1-4 1-5-1h-1l-1-1h-1v2h-2l-2 1h-2v2h-1v-1q0-1-4-2t-9-3l-6-2v-2h-2v-1q0-1 1-1t1-1-2-1q-1 0 0-1z" fill="#f2b229" fill-rule="evenodd" stroke="#f2b229"/> <path d="m489 120v-1h1v2l2 4v3q0 4 1 10v6q-1 0-1 2v1l1 1h-3v-1h-1v1h-1v3h-1v-5q-1-6-1-3l-2 3-1-1v-1h-1q-1 0-1-1h2v-3q1-4 2-10l1-6 2-2v-2h1z" fill="#8c963d" fill-rule="evenodd" stroke="#8c963d"/> <path d="m192 152h1l9 4q9 4 18 14 10 12 14 15 4 4 6 13l4 18q2 10 2 16v5l-1 7q-1 7-2 8l-1 2v1l-1 1h-5v-4l-1-1h-1l-1-3q0-3-1-4h-1q1 0 0-5 0-5 2-5 2 1 1-6 0-8-3-20l-3-12v-1l-2-2v-1h-1v-1q-1 0-1-1t-1-1q-1-1-5-4t-5-3h-1l-1-2-4-4-3-4v-1q0-1-2-3t-14-6l-12-4-2-1h-2v-1h2l2-1h2v-2h1l1 1h1q1 2 5 1 4 0 4-1 0-2 2-2z" fill="#efab1a" fill-rule="evenodd" stroke="#efab1a"/> <path d="m707 352v1q0 1-1 1-2 0-2-2 0-1-2-1l-3 1h-2q-2 0-5-1l-4-2 1-1h8q7 0 8 2t2 2z" fill="#c8b042" fill-rule="evenodd" stroke="#c8b042"/> <path d="m172 158v-1h2l2 1 12 4q12 4 14 6t2 3v1l-4-1q-4-1-4 1t3 4q3 3 2 4l-2 1q-2 1 0 1 2 1 4 4 1 4 4 4 3 1 3-1 2-2 2-5v-2h1q1 0 5 3t5 4q1 0 1 1t1 1v1h1v1l2 2v1h-1v1h1v2h-1l-1-1h-1v1h-1l-1-1q-1-2-1-3t-4-1q-3 0-4 1-2 2-4 2h-3v-1h-4q-4 0-7 2l-2 3v-1q0-2-1-2-1-1-7-4l-6-2v-2q0-2-2-1l-3 1h-1l-1 1h-1v-2l1-1v-1h1v-1h2l3-2h1l3-3v-1h-1q-1 0-3-2l-2-2v-2q1-2 1-4 0-1-3-1-2 0-2-1t-1-2h-1q1 0 2-3t0-4l-2-1h1zm22 32 1 2-1 2q0 1-2-1-2-1-2-3t-2-2q-2-1 0-3 0-2 3 0 2 3 3 5z" fill="#f4c35b" fill-rule="evenodd" stroke="#f4c35b"/> <path d="m562 325h1l2 6q1 6 5 9t5 6l3 3q1 1 2 1h1l1 1v1q0 1-2 2-3 0-5 4-3 4-4 5-2 1-4 3l-2 2h-1v1h-1v1h-1v-1h-1q0-1-1-1v-2q0-1-6-5-5-5-16-7l-10-4h-5l-2-2h2v-1h2l2-1 11-3q11-3 16-7 5-3 6-6 0-2 1-3v-1l1-1z" fill="#fcf7ed" fill-rule="evenodd" stroke="#fcf7ed"/> <path d="m869 296h1l2 5q2 5 2 7v2h-2l-1 1q-1 1-6 1h-5l4-8 4-7q0-1 1-1z" fill="#b51c0f" fill-rule="evenodd" stroke="#b51c0f"/> <path d="m638 185v-1l1 2 1 1v1h1v1h1v1h1v1h-3q-2 1-4 1t-7 6q-5 5-6 12-1 8 1 11v3h1v1h1v1h1v1h1v1h2l-2 2h-2v1l-2 2v-2h-1v-1h-1v-2h-1l-2-6q-3-6-2-12t4-12q3-5 7-8l6-3q1-1 2-1h2v-1z" fill="#bace59" fill-rule="evenodd" stroke="#bace59"/> <path d="m648 225h3q1 0 0 5-1 4-3 6l-2 1-1 1h-2v1h-1v1h-2v1h-1v1h-1v2h-2v2h-1q-1 0-3-3l-2-3 1-2q1-2 2-2t5-4q3-4 6-5 4-1 4-2z" fill="#506b47" fill-rule="evenodd" stroke="#506b47"/> <path d="m439 220h2l1 1q2 1 2 2v4q1 3 4 1l3-2h1q2 0 3-1h1v1q0 1-1 1t-1 1v1h-1v1h-1v5l4 7q6 7 9 10 3 2 3 3t-1 1 2 2 4 2h8l1-1h1v1l-1 1v1h-2v1l-1 1h-1v1h-1v-1h-13q-10 0-15-2t-13-2q-7 0-8 2-2 1-2 6 0 4-2 7t-3 3-2 1-4 3l-3 2h-3l-1 1-2 1h-2v-2h2v-5h1v-1h1v-4h-1q-1 0-3-1-3-1-3-2t-3-3q-4-1-6-7-4-6-4-11t3-9q4-3 19-7t18-7l3-3v-2h1v2h2l2-2h2v-1l1-1z" fill="#dec9cc" fill-rule="evenodd" stroke="#dec9cc"/> <path d="m126 197v-1h1l4 3q4 3 7 3h2v1h-2q-3 1-8-2l-4-3v-1z" fill="#f6c753" fill-rule="evenodd" stroke="#f6c753"/> <path d="m677 348h8l1 1h1v1h1v2q0 1-1 1 0 1-5 1l-5 1-3-1q-3 0-2-3 0-3 5-3z" fill="#ebecce" fill-rule="evenodd" stroke="#ebecce"/> <path d="m95 187h1l-1 3q-1 3 1 5 1 2 2 3h10l1-1v-1h2v2q-1 0-1 1v1l2 6q2 5 3 6l2 2v1h1v4h-2l-1 1h-2l1-1v-1q0-1-2-2l-2-2-2 1q-2 1-2 3 0 1-1 2h-12l-1-1v-1h1v-1h1l2-1 1-4q1-5-2-7l-2-2v-1h-1v-2q-1 0-1-2-1-1-1-2h-1v-1l1-1v-2l2-2q2-3 3-3z" fill="#f5bc30" fill-rule="evenodd" stroke="#f5bc30"/> <path d="m879 217 1 1q1 0 2 1h1v1q-1 0-2 2-2 2-5 2h-3 1v-2h1v-3h1q2 0 2-1t1-1z" fill="#af2f25" fill-rule="evenodd" stroke="#af2f25"/> <path d="m870 184 3 2q3 1 5 5t2 5l-4 5q-3 5-8 6h-5v-1l-1-1v-4l4-9 4-8z" fill="#2a201e" fill-rule="evenodd" stroke="#2a201e"/> <path d="m199 243h7v1l2 2v1l-1 1v1q0 1-1 2-2 1-6 2l-4 1v-3q0-2 1-5l1-2q1 0 1-1z" fill="#8c8a2b" fill-rule="evenodd" stroke="#8c8a2b"/> <path d="m171 187v-1h1v1h1v3h-1v2l-2 2v2q0 1-1 3v2h-1v-1q0-2-2-2h-5l-2 2h-2v-1q0-1 1-1l1-1v-2l3-1q4-2 6-4l3-3z" fill="#e4b253" fill-rule="evenodd" stroke="#e4b253"/> <path d="m375 312-3-3 4 2q3 3 5 2 3-1 5-2t9-1 12 3 7 7q2 3 2 11 2 8 3 9 1 2 2 2h1v1h1v1h-3l-2 1-1 1h-5v1h1v1h1l-1 1q-1 1 0 1l1 1 2 1h-4q-5 0-5 1t1 1 1 1v1h-1q-1 0-2-1 0-1-2-1t-10 1q-7 1-10-1-2 0-6-1l-3-1v1l1 1v2h-1l-1-1v-2q0-2 1-2 0-1-1-4-2-4-2-10t2-11q2-6 3-8 1-3-2-6z" fill="#e5dabe" fill-rule="evenodd" stroke="#e5dabe"/> <path d="m302 130q2 0 3 2 0 2-4 4t-10 1q-7-1-3-2 3-1 7-3 5-2 7-2z" fill="#f35e3c" fill-rule="evenodd" stroke="#f35e3c"/> <path d="m148 248h1l2-1h2l5 2q5 1 8 5 2 3 3 3v1l1 1v9h-1v1h-1v1h-6v-1h2v-1q0-2-1-3t-7-6l-7-5v-1h-1v-1h-2q-1 0 0-2l1-2h1z" fill="#ebdeb6" fill-rule="evenodd" stroke="#ebdeb6"/> <path d="m338 344h2v1l2-2v-1h2l-1 24q-1 23-1 24t-1 2v1q-1 0-2 2-2 3-43 3h-42l-1-1v-1l-1-1v-3q0-3 3-14 3-10 6-18t13-10l9-2h4v-1h-1v-1h-4l-4-1q-3-1-6-1h-2l-2-1h-2v-1h-1l-1-1 1-1q1 0 1-1t14 0 26 3q13 2 17 2 3-1 4-4 1-2 4-2 3 1 3 2 0 2 1 3 0 1 3 1z" fill="#f5b939" fill-rule="evenodd" stroke="#f5b939"/> <path d="m109 228h1l4 8v2l-4 2h-5l-2 3q-1 2 1 4 3 3 5 2l3-1 1 1q1 1 0 3t0 2l2 3q1 3 2 4l1 1 2 1q3 1 8 1 6-1 8-4 2-2 4-5 0-3 1-3l1 2q0 1 1 2l1 1v1h1q1 1 1 2v1l-1 1q-1 2-1 6v3h1v1h3q3 0 6-1l4-1h5v2l-1 1v2l-3 1q-3 1-3 2-2 1-2 2v2l-1 2-1 1v3h-1q-1 0-1 1v1h-12v3l2 2v2h1v1h1v1h1v1h2l8 2h1v1h1v1h2l1 1h1v2h-1l-2 1h-4l-2-1q-1-1-11-1h-11l-4-3q-4-3-8-7l-4-3-1-1q0-1-4-4-3-3-10-8l-7-4q-1 0-1-1-1 0-2-2-1-3-3-7l-2-5v-6l2-2v1h1v-1h1v-1l3 3q3 3 5 3h2l2-2 1-2 1-1v-1l-1-2q-1-1-1-2-2-2-2-6l-1-3q1 0 1-3v-3h1v1h3q4 0 5-1l3-3v-1q0-1 1-1zm17 58h4q2 2 2 4-1 2-4 2t-3-3 1-3z" fill="#f4be3c" fill-rule="evenodd" stroke="#f4be3c"/> <path d="m827 291h3l3 3-2 2h-2l-1-1q-1-1-4-1l-4-1 2-1q2 0 5-1z" fill="#ef8059" fill-rule="evenodd" stroke="#ef8059"/> <path d="m687 163h24l3 2q2 3 3 3t1 2v3l-3-3q-2-2-7-1-4 1-4 5-1 3-8 4h-7l-1 1h-1l1 4q2 4 1 5t-1 2v2h-2q-1 0-2 1 0 1-5-1t-5 0-2 2h-3v-1l-1-1v-4q0-2-1-2h-1v-1l1-1h1v-5l1-4h1v-1l1-2v-1h1v2l1 3h1v-1l1-3q1-2 1-4v-1l5-2q5-1 6-2z" fill="#e8510e" fill-rule="evenodd" stroke="#e8510e"/> <path d="m908 251 3 9v3h-1q-1-1-4-2l-3-1 1-4q2-3 2-4 1 0 2-1z" fill="#b42a16" fill-rule="evenodd" stroke="#b42a16"/> <path d="m560 326h1v1q-1 1-1 3-1 3-6 6-5 4-16 7l-11 3-2 1h-4q-2 1-9 1-6 2-37 2h-31v-1h-1v-1h-1v-1h-1v-1h-1v-2l-1-3v-3h4v1h1v1h27v-2h-6q-6 0-13-2h-6l6-2h13l19 1q18 1 20 0h4l-1 1q-1 2 12 1t22-2q9-2 9-3l-1-1q-1-1 1-1t2-1l4-1 4-2z" fill="#f63f0a" fill-rule="evenodd" stroke="#f63f0a"/> <path d="m140 248h7l-1 2q-1 2 0 2h2v1h1v1l7 5q6 5 7 6t1 3v1h-2l-2-2v-2l-1-1q-1-2-2-3t-5-1h-4q-1 0-2 1v-1q0-1-1-2h-1v-1l-1-1q-1-1-1-2l-1-2q-1-1-1-2h-1v-1l1-1z" fill="#dabe85" fill-rule="evenodd" stroke="#dabe85"/> <path d="m770 129h1q0 1 1 1h2l6 5q5 5 10 7l4 2v2h-2v-1h-1v-1h-1q-1 0-2-1t-10-2l-10-1 1-1h1v-2h5v-1l-3-3-3-2v-1h1v-1z" fill="#d0c191" fill-rule="evenodd" stroke="#d0c191"/> <path d="m179 194 1-2 6 2q6 3 7 4 1 0 1 2v3l-1 1q-1 1-5 4l-4 3-2 2-4-8v-5q0-4 1-6z" fill="#e1d0a8" fill-rule="evenodd" stroke="#e1d0a8"/> <path d="m492 171 1-1h1v2q0 1-1 4-2 2-5 1l-3-1q-1-1 0-2l1-1h3v-1h2l1-1z" fill="#e2c8af" fill-rule="evenodd" stroke="#e2c8af"/> <path d="m640 348h2v-1l2-2h1v4q1 4 1 5v1h-1q-1 0-2 4t-1 3l-1 2v1q0 1-3 2-2 1-2-3t-1-4-1-1v-3h-1v-1h-1v-1 3q0 3-1 4v1h-2v-1h-1v-1l-2-2v-2l-1-1v-1h2l2-2h1q2-1 4-4 2-2 3-2t2 1q0 1 1 1z" fill="#416c08" fill-rule="evenodd" stroke="#416c08"/> <path d="m178 184h1l-3 2h-2v1h-2v-1h-1l1-3q0-3 2-2 2 0 2 1 0 2 2 2z" fill="#ed722d" fill-rule="evenodd" stroke="#ed722d"/> <path d="m40 350v-3h42l2 3q2 4 2 5 1 1 2 1h6q5 0 8-3l3-3 3-1q2-1 11-1h10v27l9-1h19q9 0 24 5t27 12 19 18q7 10 7 11v5h-1l-1-1-1 1v1h-1q-2 0-84 1h-84q-1-1-3-1h-5q-2 0-3-1-1 0-2-3l-1-3v-1q0-1-2-3 0-2-3-4-3-1-3-16 0-14 2-15 2-2 2-6t-2-6q-3-2-3-9v-7h1v-2zm29 9q1-1 4 0 3 0 3 5t-3 6q-2 0-4-1-1-1-1-5t1-5zm51 12v3l-1 2-2 2q-1 2-5 2-5 0-6-2l-1-2v-5q1-6 2-8 2-1 6-1 3 1 5 4 2 2 2 5zm-69 33-1-2v-8q0-8 2-10 1-2 4-1t4 2q2 1 2 9 0 9-2 11-2 3-5 2-3 0-4-3z" fill="#f5c056" fill-rule="evenodd" stroke="#f5c056"/> <path d="m645 355h1v1q-1 0 0 1 1 0 1-1l1-1v2l2 1q2 2 3 0t2 2q2 4 3 4t1-1l1-1v2l1 2v1h-2v2h-1q0-1-2-1-1 0-2-3l-2-2h-3l-3 1h-2v1l-1 1v1h-1v-2h-1v-1l1-2q0 1 1-3t2-4z" fill="#d4b54c" fill-rule="evenodd" stroke="#d4b54c"/> <path d="m702 370h2v1q1 1 2 1 0 1 1 0l1-1h1v1l-2 2h-1v1q0 1-2 2l-1 1h-1l1-1q1-1-1-3l-1-3q1 0 1-1z" fill="#ead998" fill-rule="evenodd" stroke="#ead998"/> <path d="m225 238-3 2q-3 1-4 5 0 4-1 4l-1 1h-2l-1-1q-1-1-3 0h-3v-1l1-1v-1l-2-2v-1h1l1-1q0-1-1-3-1-3 2-3h7q0-1 2 1 1 3 2 1h5z" fill="#f0b03c" fill-rule="evenodd" stroke="#f0b03c"/> <path d="m661 212 1-1 1 1v3q0 1 1 2v1h1v1h-1q-1-1-4-2-2-1-2 2v3h-2v-1l-2-2h-2v-1q1 0 1-1h1l2-2 4-2v-1h1z" fill="#f1b290" fill-rule="evenodd" stroke="#f1b290"/> <path d="m667 321v-2h1l1 1h1l1 2q1 1 1 3v2h1v-1h1l1-2q1-2 2-3l2-2h1v13q0 4 1 4t2 2l1 2h1v1h-1q-2 1-4 1-1 0-2 2t2 2h2v2h-5q-5 0-5 3-1 3 2 3l3 1v1l-1 1v1h1l1 1v1h1v3h-2l-2 1h-1v1h-1v-1h-1q-1 0-3-2-3-2-3 0-2 3-2 2h-1v-1h-1v-1h-1v-1h-1v1l-1 1q0 1-1 1t-3-4q-1-4-2-2t-3 0l-2-1v-7q0-4-2-4l-1-1h-1v-3h-1v-1h-1v-1l-1-1v-1h4l1 1 2 1h4l1-2q1-2 3-4 3 0 5-1t3 0q0 1 2 0 1-1 1-3-1-1-1-4v-3l1-2z" fill="#386e0f" fill-rule="evenodd" stroke="#386e0f"/> <path d="m148 142h2v1q-1 1 0 1 2 0 2 3v3l-12 6-13 4v1h-1v1h-3v1q-1 0-1 1h-1v1q-1 0-3 1-3 2-4 3v1h-1l-1 1h-1v1l-1 1v-2h-1v1h-1v2h-1l-2 2h-1v1h-1v1h-1v2h-1l-2 2h-1v2l-1 1v1h-1v1l-3 3-3 2v1h-1q-1 0-6 9-5 8-5 12 0 3-1 6t-3 3-2 4v10h-1v-2q-1-2-12-1-11 0-11 2-1 2-2 2h-1v12l-1 1v4h-1v1h-4v-10q-1-9-1-22 0-12 3-13t5-4l2-3v-1q0-1-1-2l-4-4q-4-3-4-24v-21h9q9 0 10 2 2 2 6 2h4q1 0 2-2t14-1q14 0 15 3 2 2 5 2 2 0 22-8t22-8zm-70 24h6q3 0 7 2t0 4-10 0q-6 0-7-2 0-2 1-3t3-1zm-23 16q4 0 4 2-1 1-4 2-4 0-4-2t4-2zm5 40h-6l-1-2q-1-2 2-4 2-2 7-1 4 1 5 1 1 1 1 4 0 2-2 3-1 1-6-1z" fill="#f6be0e" fill-rule="evenodd" stroke="#f6be0e"/> <path d="m431 198v1h1v2l2 2v1l2 4q2 3 2 4v1l1 1 1 2v2h1v2h-1l-1 1h-1v-4l-2-2v-1q0-2-2-5l-2-3v-2l-2-2v-3h-1v-1l-1-2q-1-2 0-2t2 2q0 2 1 2z" fill="#a7ae4e" fill-rule="evenodd" stroke="#a7ae4e"/> <path d="m822 172h1q1 1 1 2v6h-4q-3 0-2-3l1-3 1-1h1q1 0 1-1z" fill="#ebdfd2" fill-rule="evenodd" stroke="#ebdfd2"/> <path d="m78 166h6q3 0 7 2t0 4-10 0q-6 0-7-2 0-2 1-3t3-1z" fill="#fcf5d5" fill-rule="evenodd" stroke="#fcf5d5"/> <path d="m644 176v-1l1 1v2l1 3v2l7 7q5 6 13 8 7 4 10 4h2q0 1-1 2 0 2-3 3l-2 1h-1v-2h-2q-2 0-6-2l-4-1h-1q-1-1-2-1t-7-6l-6-5v-1h-1v-1h-1v-1h-1v-3l2 2q2 1 2 2v-4l-1-1-1-2v-2q0-1-1-2l-1-2h4z" fill="#e05010" fill-rule="evenodd" stroke="#e05010"/> <path d="m453 204h3l1 1h1v6-1h-2q0 1 2 5t2 7v3h-4l-1 1h-5q-2 0-3-2l-1-2v-4q0-5 1-8 0-2-1-2h-1v-1h1v-1h7v-2z" fill="#7d8329" fill-rule="evenodd" stroke="#7d8329"/> <path d="m445 335v-1h7l-6 2h6q7 2 13 2h6v2h-27v-1h-1v-1h-2l2-2h1v-1h1z" fill="#f88851" fill-rule="evenodd" stroke="#f88851"/> <path d="m456 210h1l1 1 2 1q2 2 2 3t1 1 1-1h1v4q-1 4-1 5v1q0 1-2 1h-1v-1h-1v-3q0-3-2-7t-2-5z" fill="#adaf59" fill-rule="evenodd" stroke="#adaf59"/> <path d="m481 244v-2h9q8 0 8 1h-2l-1 1h-4v1h1v1l1 1v1h-1l-2-2h-3l-1-1q-1-1-2 0h-2l-1-1z" fill="#a5ae58" fill-rule="evenodd" stroke="#a5ae58"/> <path d="m222 238h3l4 4 1 2-2 5q-1 5-2 7t-6 3-6 1h-2v-1h-1v-2q1-1 2-4l2-3h1l1-1q1 0 2-5l1-4q1 0 1-1h1v-1z" fill="#da5110" fill-rule="evenodd" stroke="#da5110"/> <path d="m654 220h1l1 1v1h1v2l1 1v2h2v-2q1-1 2-1l1 2q1 2 5 4 3 1 3 2v6h-1l-2-1-1-1q-1 0-1 4 0 3-4 3-5 1-6-1-2-1-2 0v1h-2v-3q0-1-3-2l-3-1 2-1q2-2 3-6 1-5 0-5l1-2q1-3 2-3z" fill="#e55613" fill-rule="evenodd" stroke="#e55613"/> <path d="m473 404v-1l3 1q3 2 3 3t4 5q5 3 5 4v1h-1l-7-7-7-6z" fill="#f4d48e" fill-rule="evenodd" stroke="#f4d48e"/> <path d="m651 219h3l1 1h-1q-1 0-2 3l-1 2h-2v-1q0-2-3-2l-2 1 3-2q3-1 4-2z" fill="#e8926b" fill-rule="evenodd" stroke="#e8926b"/> <path d="m482 147v8h-2q-3 1-7 1-4 2-8-1l-3-3h-1v-1h-1v-1h-2v-2l-1-1v-1h12q12 0 13 1z" fill="#f69862" fill-rule="evenodd" stroke="#f69862"/> <path d="m805 318v-1h1v1l5 5q5 5 8 5 3 2 9 1t11-5 6-4h1l1 4q1 3 2 4v1h1v1h1v1h1v2l6 4q5 5 6 5h1l1 1h1v1h1v2h-2l-1 1q-1 1-2 1t-6 5q-5 4-8 9l-3 6h-2v-1h-1q0-1-4-3-4-4-11-4-8 0-11 1t-7 5l-3 4h-1q-1 0-6-5t-15-5-14 3q-3 3-6 7l-3 5h-1l-1-1h-1v-1h-1v-1q0-1-4-5-4-5-7-9l-3-5v-8l2-2 3-5q3-5 8-11l5-7h1l1-1h1v1h1v2h1v1h1l4 3q5 2 7 3t6 1h5v-1h2l1-1h2l4-3 4-4q1-1 1-2v-1h1z" fill="#fdfaf7" fill-rule="evenodd" stroke="#fdfaf7"/> <path d="m169 257q-1 0-3-3-3-4-8-5l-5-2 5-1h7q1 1 3 4 2 2 2 4 0 3-1 3z" fill="#f5bf3b" fill-rule="evenodd" stroke="#f5bf3b"/> <path d="m486 245 1 1h3l2 2h1v1l-1 1v2h5l4-1q4-1 10-1h6v1h1v1l-1 1v1h-2v1h-1v1h-1v1h-1v1l-3 2q-2 2-11 6l-10 4h-5l-1-2q0-1 2-2 3-2 4-2h2l2-1 1-1h2l2-2h-3l-2 1-1 1h-9v-2h1v-2l1-2v-2h-1v-1q1 0 0-4l-1-4h2q1-1 2 0z" fill="#879435" fill-rule="evenodd" stroke="#879435"/> <path d="m678 358v-1h4q3 0 4 2 0 2-1 2h-1q-1 1-3 0l-2-1-1-1v-1z" fill="#f7e8b8" fill-rule="evenodd" stroke="#f7e8b8"/> <path d="m114 310h1l2 2q1 2 2 2v6q1 4 0 5l-1 1v2h-1l-2 2h-2v-1h-1v-1h-1v-1h-1v-13q0-1 1-1t1-1 2-2z" fill="#fbf7dd" fill-rule="evenodd" stroke="#fbf7dd"/> <path d="m666 408v-2l4 8q4 9 10 14t6 14q0 8 2 10 0 1 5 7t7 13q2 8 0 14 0 7-3 8-2 0-3 2t-28 2h-32q-6-2-10-4-5-2-6-8v-10q2-2 3-6l1-5v-1h-2l-5-1q-5-1-8-1-3-2-7-2h-10q-6 0-9-4-3-5-9-24l-4-20-1-2v-3h1v1h1v1h1v1l6 1q6 1 46 0l39-1h1v1l1-1v-1h3v-1z" fill="#f8d794" fill-rule="evenodd" stroke="#f8d794"/> <path d="m55 427 2-1h2q2 0 3 1h1l1 2q2 2 1 7-1 4-2 5-2 1-5 1h-4v-1h-1v-1h-1v-7q1-5 3-6z" fill="#fcf8ed" fill-rule="evenodd" stroke="#fcf8ed"/> <path d="m838 145h2l1 1q1 1 1 5t-1 5v1h-1q0 1-4 2l-4 2v-3h-1v-1h1l2-6q2-6 4-6z" fill="#1f170d" fill-rule="evenodd" stroke="#1f170d"/> <path d="m471 188v-1l3 2 3 3v1l-2 7q-2 8-3 10-1 3-2 3l-1 1h-2l-1-1q-2-1-4-6l-3-5q-1-1-2-5l-1-4-1-1v-2l2-2h2v1l1 1v2l1 1h1v5h2v-2l4-4q2-4 3-4z" fill="#7e8529" fill-rule="evenodd" stroke="#7e8529"/> <path d="m468 187h3v1q-1 0-3 4l-4 4v2h-2v-5h-1l-1-1h2l2-2q1-2 4-3z" fill="#a0a34e" fill-rule="evenodd" stroke="#a0a34e"/> <path d="m685 249v1q1 2 1 8 0 5-1 8-1 2-5 5l-5 3q-1-1-2-4-1-4-5-5-3-1-4-4l-2-2v-2h2v-3h2l6-3q7-3 8-3h2l2-1q2-1 2 0-1 1-1 2z" fill="#f5832c" fill-rule="evenodd" stroke="#f5832c"/> <path d="m134 250h6q0 1 1 2-1 0-1 3-2 3-4 5-2 3-8 4-5 0-8-1l-2-1-1-1q-1-1-2-4l-2-3 1-1v-1h8q8-2 12-2z" fill="#d8520e" fill-rule="evenodd" stroke="#d8520e"/> <path d="m525 174h1v2q0 1-1 2v1q-1 0-5 6l-5 6h-1v1q-1 0-1 1h-1v1q-1 0-1 1v1h-2v-1q1-1 3-6t-5 2l-7 7v1h-1v1h-2v-3h-1l-1 1h-2v-2h2l1-1v-1h1l10-10 7-4q7-4 9-5l2-1zm-25 20q1 0 1 1v1h-1q-1 0-1-1t1-1z" fill="#909b40" fill-rule="evenodd" stroke="#909b40"/> <path d="m490 216h1l5 2h6q1 0 0 1v2h1q0 1-7 1-6 0-8-3l-3-2q1 0 1-1h4z" fill="#a2a654" fill-rule="evenodd" stroke="#a2a654"/> <path d="m832 119v-3l2 10 1 4v3l-1 6q-1 6 2 6 3-1 3 0h-1q-2 0-4 6l-2 6h-1v1h1v3h-2v-3h-1v-1h-1v-9q0-10 1-14v-4l1-4q0-4 1-4h1v-3z" fill="#818b3a" fill-rule="evenodd" stroke="#818b3a"/> <path d="m720 175h1v1q-1 1-3 6t-6 8l-4 4 4-9q5-9 6-9t2-1z" fill="#ed8b65" fill-rule="evenodd" stroke="#ed8b65"/> <path d="m841 168h2v1q-1 1-2 5-1 3-5 4h-4q-1 0 0-1v-1h1l8-8z" fill="#ae3b23" fill-rule="evenodd" stroke="#ae3b23"/> <path d="m107 185 1 1h1v1h1v4q0 4-1 5-1 0-1 1v1h-10q-1-1-2-3-1-1-1-4v-3h1v-1l1-1h2v-1h4q3-1 4 0z" fill="#f8c472" fill-rule="evenodd" stroke="#f8c472"/> <path d="m480 235 2-1v1h-1v1h-1 13q7-1 7 0t-3 1l-3 1h-4q-3 0-6 2-3 0-2 1v1h-2l-1-3q-1-3 1-4z" fill="#abb358" fill-rule="evenodd" stroke="#abb358"/> <path d="m69 359q1-1 4 0 3 0 3 5t-3 6q-2 0-4-1-1-1-1-5t1-5z" fill="#fbf4df" fill-rule="evenodd" stroke="#fbf4df"/> <path d="m205 266 3-3 3 1q3 1 5 3t2 5v3q0 1-1 1v1q-1 0-1 1h-1v1q-1 0-2 2-2 1-6-1-3-2-4-7t2-7z" fill="#f7c581" fill-rule="evenodd" stroke="#f7c581"/> <path d="m126 186h2l4 3q5 3 13 3h8v2q1 2 0 2v1q-1 0-1 1h-1v1q-1 0-1 1h-1q-1 1-1 2h-2q-2 0-4 1h-2v-1h-2q-3 0-7-3l-4-3h-1v-2l-1-1q-1-1 0-3 0-3 1-4z" fill="#eadcb5" fill-rule="evenodd" stroke="#eadcb5"/> <path d="m665 152v-1l3 1q4 2 24 3t24 2l5 1h7l-14 1q-14 1-17 1h-3l-4 2h-2v1h-1q-1 1-6 2l-5 2q-1 1-2 1l-1 2h-1v1h-1v-1h-1v-1l-2-2v-3l-2-2v-5q0-5-1-5z" fill="#51785d" fill-rule="evenodd" stroke="#51785d"/> <path d="m126 286h4q2 2 2 4-1 2-4 2t-3-3 1-3z" fill="#9f9d29" fill-rule="evenodd" stroke="#9f9d29"/> <path d="m193 278q3 0 3 3t-2 4-4 1q-3 0-3-2-1-3 1-5 2-1 5-1z" fill="#4d3d1a" fill-rule="evenodd" stroke="#4d3d1a"/> <path d="m778 296v-1l1 1q1 2 1 4v1h1v1h1l2-2q2-3 2 0t2 2h8v1q0 1-2 1l-2 1h-1l-1 1h-1v1h-1v1h-1v1h-1v1l2 2q2 2 2 4v5-1h-1l-1-1v-1h-1v-1h-1v-1l-2 3-1 3h-1v1l-1-3q0-4-4-2l-3 1v-4q2-2-1-3h-3v-1h-1v-1l5-1q4-1 3-6t0-5v-2h1z" fill="#786e2b" fill-rule="evenodd" stroke="#786e2b"/> <path d="m971 352v1h-1q0 1-4-1-4-1-4-2t-6-2l-6-1 4-1q5 0 10 2t6 2q0 1 1 2z" fill="#a3a758" fill-rule="evenodd" stroke="#a3a758"/> <path d="m858 157h1l5 8q4 8 5 13t1 6l-4 8-4 9v4l1 1v3l-1 2v1l2 4v1l-1 2q0 2-1 2t-1-1q0-2-1-2t-1 2q-1 1-4 1-4 1-5 0v-3q1-2-2-2h-3v1h-1v-1h-2v-1h-1v-1h-1v-1h1v-1h11v-2h-3v-1h-1v-1h-9v-1l1-1v-1l3-3q1-2-1-3t-3-4l-1-3 1-2 1-1v-3l8 2h1v1h1v-1q0-2-1-5t2-5 1-2q-3 0-2-2v-6l-1-2v-1h1v-2h1v-1l2-2q1-2 2-2h1q2 0 2-1z" fill="#c6241b" fill-rule="evenodd" stroke="#c6241b"/> <path d="m152 150 6 2q5 2 9 3t4 2h-2l-2 1h-1q-2 0-4 2l-2 2v2l1 1v1h10l3 2q4 1 4 2 0 2-1 4v2h-5q-5 0-9 2l-3 3-2 4v10h1v2h-3l-6 3v-1q0-1 2-2t2-3l-1-2-1-1q-1 0-1-1t-3-3q-3-3-6-3-4 0-6-2h-2q0 1-3 2l-3 2h-2q-1 1-1 4-1 2 0 3l1 1v4h-2l-1 1v-2q-1-2-1-4l-1-3h-4l-6 6h-1v1h-1v1h-1v-3h2v-8h-1v-1h-1l-1-1q-1-1-4 0h-4v1h-1l-1 1h-1v-2h1v-1h1v-2h1l2-2h1v-2h1v-1h1v-1h1l2-2h1v-2h1v-1h1v10h1v1h5l4-3q3-3 6-4l3-1h2v-1h1v-1h1v-1h1v-2h-1v-1h-1v-1h-1v-1h-1q-1 0-5-1h-4v-2h1l1-1h3v-1h1v-1l13-4 12-6zm-4 18v1q-1 1-5 1t-4-2q-1-3 2-5 2-3 5-3t3 4l-1 4z" fill="#f6bf3c" fill-rule="evenodd" stroke="#f6bf3c"/> <path d="m879 337-1 2v7h1v1h-1q-1-1-6-2l-4-1q0-1-1-1h-1l-1-1h-1q-1 0-6-5l-6-4v-2h-1v-1h-1v-1h-1v-1h2v1h1v1h5q2-2 3-2h1v1q0 1 6-1t9-4q2-2 2 4 0 7-1 9-1 1 0 2 1 0 1-1t1-1z" fill="#b41d13" fill-rule="evenodd" stroke="#b41d13"/> <path d="m183 220v-1l2 2q3 2 2 3-1 0 0 1l2 2v1h-1q-1 0-4-1-2-1-2 0t-2 1q-1 1-1 2l1 2v-1h1v1h1l3 1q3 1 3 4t3 3q3 1 4 2 0 1 1 1 1 1 2 1l-1 2q-1 3-1 5v3l4-1q4-1 6-2 1-1 1-2h3q2-1 3 0l1 1h1l-2 3q-1 3-2 4v1h-1v1h2v1l-2 2h-2v1l-3 3q-3 2-2 7t4 7q4 2 6 0l3-3h1v1q-1 1-3 4-4 3-13 8-9 6-14 6h-5v-1q0-1-1-3v-6q-1-2-5-2-4-1-4-2v-2h1v-1h1v-2q0-2-1-2v-1h3l4-2h1v-1h1v-1q0-1 2-2 2 0 2-5t-1-6q-2-1-1-1v-1h1v-1h1v-1l-1-1v-1h-1l-1-1h-1v-1h-1v-1h-4v1h-1v13h-1v2h-3l-1-1h-1v-4l-1-1v-1q1 0 1-3 0-2-2-4-2-3-3-4h-7l-5 1h-2l-2 1h-9v-1h-1v-1h1v-1h-1v-1l1-1v-2h2l1-1h-1v-2h1v-1h-1v-2l3 1q3 2 4 3t3-1h3v-2q0-2 1-2t0-3v-5h1v1h1v4l1 1q1 1 1 0t1-1 1 1q0 2 1 3v1h2v-1l1-1v-2q0-1 1-1l1 1h1l1 1q1 0 0-3v-6l1-2 4-1q4-1 6 0 2 0 2-1zm10 58q3 0 3 3t-2 4-4 1q-3 0-3-2-1-3 1-5 2-1 5-1z" fill="#f0bb3c" fill-rule="evenodd" stroke="#f0bb3c"/> <path d="m475 200 2-7 1 2q0 2 1 6v4l-1 2v4h-2q-1 1-4 2l-3 1 1-1q1 0 2-3 1-2 3-10z" fill="#b3a45c" fill-rule="evenodd" stroke="#b3a45c"/> <path d="m361 410v-3 1l1 1v1h1v2h1v2h1l2 2h1l2 2q2 2 2 3v1h-1q-1 0-3-2l-2-2v-1l-2-2q-2-2-3-5z" fill="#f5d188" fill-rule="evenodd" stroke="#f5d188"/> <path d="m57 284h3v1h1v1h1v9q0 9-2 11t-3 1q-1 0-2-3-1-2-1-9v-7l2-2v-2h1z" fill="#fcf7db" fill-rule="evenodd" stroke="#fcf7db"/> <path d="m303 159h1v1h1l1 1h1v1l1 1q2 1 13 4t14 5l3 2h1v3q0 3 1 3 2 0 2 1v1h1l-1 1-2 1v2h1-1q-2 0-3 2-1 1-1 0t-1-1q-1 1-11 0l-9-1h1v-2h-5v4h12l-1 1-2 1h-5v-1h-3q-1 1-4 0-2-1-4-3-1-4-2-3 0 1-2 1h-2q0-1-1-1v-1h-7l2-2h1l-2-2h1q2 0 3-4t0-4 0-1 2-3 3-3q1 0 2-2 0-1 1-2zm29 26q-2-1 0-1 1 0 1 1t-1 0z" fill="#f0bc8b" fill-rule="evenodd" stroke="#f0bc8b"/> <path d="m915 343h1v1h1v1q0 1-5 2t-8-1l-3-2 5-2q4-2 6-1t3 2z" fill="#f9e8d8" fill-rule="evenodd" stroke="#f9e8d8"/> <path d="m507 183v1h-1v1l-9 9h-1v1l-1 1h-1v1l-1 1h-2v1h-1v1l-1-2v-3h1l1-6q2-7 3-8l2-1v-1h2l1-1h3q3 0 5 1 3 1 1 2 0 1-1 2z" fill="#f5e7e3" fill-rule="evenodd" stroke="#f5e7e3"/> <path d="m581 351v-1l2 1q2 1 7 1t5-1 1-1h1v2q0 1 4 3t4 1q1-2 1-4v-2l1 3q1 3 7 3 7 0 8-1l2-1h1v1l1 1v2l2 2v1h1v1h2v-1q1-1 1-4v-3 1h1v1h1v3q0 1 1 1t1 4 2 3q3-1 3-2h1v2h1v1h1v1h1v1h1v2q1 1 3 1t1 1q0 2 2 2 1 0 1 4 1 3 6 12 5 10 6 11l1 1v5h-3v1l-1 1v-1h-1l-39 1q-40 1-46 0l-6-1v-1h-1v-1h-1v-1h-1q-1 0-1-3 0-4-1-20v-16l2-2q2-2 4-3 1-1 4-5 2-4 4-5 3-1 2-2z" fill="#f4bb4a" fill-rule="evenodd" stroke="#f4bb4a"/> <path d="m60 222h-6l-1-2q-1-2 2-4 2-2 7-1 4 1 5 1 1 1 1 4 0 2-2 3-1 1-6-1z" fill="#fbf6d8" fill-rule="evenodd" stroke="#fbf6d8"/> <path d="m129 308v-2h10q10 0 11 1l2 1h6l4 2q3 1 4 2h13v1h-1v1h-4l-2 2h-1q-1 0-5 2h-10q-7 0-14-1l-8-1q0-1 1-2h2l-1-1-2-1h-1l-2-2h-3q0-1 1-2z" fill="#edad23" fill-rule="evenodd" stroke="#edad23"/> <path d="m844 123v-1l1 1q1 0 5 9 4 8 6 16l2 7h1v2h-1q0 1-2 1h-1q-1-1-6-1l-6-1-1 1h-1v-1q1-1 1-5t-1-5l-1-1h1q1 0 2-11l1-11z" fill="#899438" fill-rule="evenodd" stroke="#899438"/> <path d="m120 371v3l-1 2-2 2q-1 2-5 2-5 0-6-2l-1-2v-5q1-6 2-8 2-1 6-1 3 1 5 4 2 2 2 5z" fill="#fcf8ec" fill-rule="evenodd" stroke="#fcf8ec"/> <path d="m947 348h1l1-1h1l6 1q6 1 6 2t4 2q4 2 4 1h1v1h1v6l-1 1v1h-1v1h-1v1h-1q-1 0-7 1l-6 1-1-1q0-1 1-1t1-1-3-3q-3-1-5-3l-1-3h-1q-2 0-2-1v-2q0-1 1-1v-1h1q0-1 1-1z" fill="#7c7f25" fill-rule="evenodd" stroke="#7c7f25"/> <path d="m738 334v9l2 2v1l2 2v3l-2 2v1l-1 2q-1 2 0 7v5h-4l-3-1-2-1h-1v-1h1v-1l2-2q1-2-3-2-3-1-3-4 1-2-4-2h-7 1l2-2v-2h-1l-2-2h-1 4l2 1q2 1 4 1h3l-1-4q-1-3 3-3l4-1h1l-4-4-1-2h4q4-2 5-2z" fill="#f3f0dc" fill-rule="evenodd" stroke="#f3f0dc"/> <path d="m77 254h3v1h1v1h1v5l2 5q2 4 3 7 1 2 2 2 0 1 1 1l1 3q1 3 0 3h-1v-1h-1q0-1-1-1h-1v-1h-1v1h-1l-1 1-4-5q-4-5-4-13t1-9z" fill="#f3bb27" fill-rule="evenodd" stroke="#f3bb27"/> <path d="m478 210q1 0 2 1v3h-1l2 2h2l-2 2h-1v1h-1v1h-1v1h-1v1h-1v2q-1 0-2 3-2 2-3 2-2 1-2-1v-1q1 0 0-5l-1-4h1l2 2q2 2 4-2 3-5 3-6v-2z" fill="#cbaf81" fill-rule="evenodd" stroke="#cbaf81"/> <path d="m176 176h1l2 2q2 2 3 2h1v1l-3 3h-2q-2 0-2-2 0-1-2-1-2-1-2 2l-1 3v1l-3 3q-2 2-6 4l-3 1h-1v-10l2-4 3-3q4-2 9-2h4z" fill="#d54e0c" fill-rule="evenodd" stroke="#d54e0c"/> <path d="m444 208v-1h2v16q0 1-1 1h-1v-1q0-1-2-2l-1-1v-1h2v-4q1-4 1-5v-2z" fill="#a9ad54" fill-rule="evenodd" stroke="#a9ad54"/> <path d="m476 211h2v1q0 1-3 6-2 4-4 2l-2-2v-1q-1-1-1-2v-1h1l3-1q3-1 4-2z" fill="#f1e8d3" fill-rule="evenodd" stroke="#f1e8d3"/> <path d="m640 191h3l6 5q6 6 7 6t2 1h1l1 1q0 1 1 2l1 1v4l-1 1h-1v1l-4 2-2 2h-1q0 1-1 1v1h-1q-1 1-4 2l-3 2h-2q-3 1-8 3l-4 2h-2v-1h-1v-1h-1v-1h-1v-1h-1v-3q-2-3-1-11 1-7 6-12 5-6 7-6t4-1z" fill="#dde2b8" fill-rule="evenodd" stroke="#dde2b8"/> <path d="m835 133v-3l-1-4-2-10v6h-1q-1 0-1 4l-2 8q0 3-1 10l-1 6v2q0 3-1 2h-1q0-1-1-3l-1-2v-13q0-14 6-24 4-10 6-10 1-1 1 15 1 16 0 16z" fill="#8b9a3a" fill-rule="evenodd" stroke="#8b9a3a"/> <path d="m170 266v-3h1l1 1h2v2h-1v9q1 0 1 2v2h-1v1h-1v2q0 1 4 2 4 0 5 2v3h-1v-1l-8-2-2 2q-2 2-2 4t-1 3v1l-2 2q-2 0-3 1h-2v-1l2-1v-4q0-3-2-3-3-1-3 1t-3 1l-4-2v-1q0-1 1-1h1v-3l1-1 1-2 1 2q1 2 3 2 3 0 4-1l1-1h1v-1h1v-1h1v-4q0-2-2-2l-2-1v-2l1-1v-2h5v-1h1v-1h1v-2z" fill="#f4bb40" fill-rule="evenodd" stroke="#f4bb40"/> <path d="m746 163q-16-3 0-2 15 2 15 4t-15-2z" fill="#648678" fill-rule="evenodd" stroke="#648678"/> <path d="m148 260h4q4 0 5 1t2 3l1 1v2l2 2v1h-4l-4 1q-3 1-6 1h-3v-1h-1v-3q0-4 1-6l1-1q1-1 2-1z" fill="#e7d7aa" fill-rule="evenodd" stroke="#e7d7aa"/> <path d="m687 350v-1h1l4 2q3 1 5 1h2l3-1q2 0 2 1 0 2 2 2 1 0 1-1l1 1q0 1 1 1h1v2h2l1 1h1v1q1 1 0 1-2 2 1 3l3 1v2l2 2v3h-4v2h-2q-2-1-3-1h-1q0-1-1-1 0-1-1-1t-1 1v1h-1q-1 0-2-1v-1h-2q-1 0-1 1h-1q0-1-2-4-2-4-2-2t-2 1h-2v-2l-1-2v-4q1-3-1-5l-2-2v-1h-1z" fill="#396c09" fill-rule="evenodd" stroke="#396c09"/> <path d="m92 220v-1h1q1 1 7 1h5l1 1q2 1 2 2h1v5q-1 0-1 1v1l-3 3q-1 1-5 1h-3v-1h-1v3q0 3-1 3v-2q-1-2-1-3v-5q0-4-2-3-1 0 0-2 2-2 1-2-1-1-1-2z" fill="#f5a425" fill-rule="evenodd" stroke="#f5a425"/> <path d="m113 221v-1h2l6 2q6 2 11 5l6 6v1h1l1 1h2v1h1v1l-1 1v2h1l-1 1h-2v2l-2 2h-1v-1q0-1-1 0-2 0-2-1-1-1-8-1-8 0-10-2l-2-2v-2l-4-8h-1v-5h1q1-1 2-1t1-1z" fill="#dcb868" fill-rule="evenodd" stroke="#dcb868"/> <path d="m944 295q0-1 4 3 4 3 5 6l2 6q0 2-2 2-1-1-4-8-3-8-4-8t-1-1z" fill="#e9594b" fill-rule="evenodd" stroke="#e9594b"/> <path d="m649 224v1h-1q0 1-4 2-3 1-6 5-4 4-5 4t-2 2l-1 2h-1q-1 0-4-3l-3-2 4-4v-1h2l2-2 4-2q5-2 8-3h2l2-1q3 0 3 2z" fill="#d75916" fill-rule="evenodd" stroke="#d75916"/> <path d="m443 163v1l3 4q4 4 4 5l2 2q1 1 2 1 2 0 2-1h1v2l-1 1v2h-1v1h1v2l2 2v2l1 1h-2l-2 2q-1 0-2-3l-1-3-2-2v-2h-2v2l2 2v3l2 5 3 6 1 1v2l1 1v2h1v1h-1l-1-1h-4v-2h-1v-1h-1v-1q0-1-4-8t-7-19-4-13h-1 2q1 0 4 1t3 2zm3 14q0-1 1-1t1 1-1 1-1-1z" fill="#8a9336" fill-rule="evenodd" stroke="#8a9336"/> <path d="m674 234h6v2h-1v1h-1v2h-3l-3-1h-1v-4h3z" fill="#ef690c" fill-rule="evenodd" stroke="#ef690c"/> <path d="m175 263 3 1q2 0 1 2t-2 2-3-1h-1v-1q1-1 1-2h1v-1z" fill="#ef7b33" fill-rule="evenodd" stroke="#ef7b33"/> <path d="m640 176v1h1v1q1 1 1 2v2l1 2 1 1v4q0-1-2-2l-2-2v2l-1-1-1-2v-1l-2-2v-3l-1-2v-2h-1q-1 0-1-1h1q0-1 2 1 3 2 4 2z" fill="#ed7d52" fill-rule="evenodd" stroke="#ed7d52"/> <path d="m59 247v-1h4v1h1v1h1v1h1l-1 5q-1 5-3 6-2 2-3 1l-1-1q0-1-1-3l-1-2v-3q0-2 2-4v-1h1z" fill="#fcf8e1" fill-rule="evenodd" stroke="#fcf8e1"/> <path d="m222 226q3 0 4 1 2 1-1 4-2 3-3 2 0-1-2-1-1 0 0-3 0-3 2-3z" fill="#999c33" fill-rule="evenodd" stroke="#999c33"/> <path d="m699 308v-1h1v1l1 2v1h2v1l-1 1-1 3q-1 4 1 4t1 2q-1 3 1 4 1 0 0 1v2h-1v1h-2v1h-1v1h3v-1h1v-1h1v-1h1q2 0 2 1v1h1q1 0 2-2 1-3 4-3t5-2 3-1q1 0 1 3v2h1v-1h1l3-3q3-2 4-3h1v2h4v11q-1 0-5 2h-4l1 2 4 4h-1l-4 1q-4 0-3 3l1 4h-3q-2 0-4-1l-2-1h-4 1l2 2h1v2l-2 2h-3l-1 1h-3q-1 0-1-1l-1-1v-1q-1 0-2-2t-8-2h-8l-1 1h-2l-1-1h-3v-2h2q1 0 1-2v-3q-1 0-2-3-1-2-2-2t-1-4v-3 2h1v-1h1v-3h1v-1h1v-1h1v1h3l-1-2q0-2 1-2t2-4q0-3 1-2 1 0 2-2l1-2 2-2h1v-1h1v-1h1zm-13 27v-3q0 1 1 5 0 3-1 3v-5zm14 4v1l-1 1q0 1-5 3-6 1-4-2 1-2 6-3 4-1 4 0z" fill="#356c11" fill-rule="evenodd" stroke="#356c11"/> <path d="m510 194v1l-1 1v1h-1v1q-1 0-1 1h-1v1q-1 0-1 1l-1 1q-1 2-2 2t0 1q0 1 4 2 3 1 4 0h1v1q1 0 1 2v3l-1 1v1q-1 1-4 3l-4 3h-1q0-1-6-3l-5-2h-6q-1-1 0-2l1-2v-1h1v-1h1l4-4q4-5 5-6h1v-1l1-1h1v-1l1-1h1v-1l6-5q6-6 4-2t-2 6z" fill="#7d852a" fill-rule="evenodd" stroke="#7d852a"/> <path d="m530 151-1-1h10l1 1 2 1h1v1h1v1h1v1h1v11h-1v1h-1v1l-2 1q-1 1-9 2l-8 1-7-2h-8v-1h-1v-1h1v-1h1v-1h1l2-1h4l4 1h11l2-2h1v-4q0-2-2-5l-2-3h-1l-1-1z" fill="#497e65" fill-rule="evenodd" stroke="#497e65"/> <path d="m680 377h1v2l-1 2v2h-1v-1h-1q-1 0-4-3l-2-2v-1q0-1 3 2 3 2 4 1t1-2z" fill="#f1ca78" fill-rule="evenodd" stroke="#f1ca78"/> <path d="m880 196v10h-1q-1 1-1 2 0 2 1 4v3q-1 1 0 1v1q-1 0-3 3l-2 4h-1 3q3 0 5-2 1-2 2-2v-1l1-1q1-2 2-2v2q0 2-4 6-2 4-2 6l1 2h1v2h2v2h-3l-2-2h-1v-1h-1v-1h-1l-5-4q-5-4-6-7l-1-4v-1l-2-4v-1l1-2v-2h5q5-1 8-6l4-5zm-8 23h3v1h-1l-2 1q-2 1-2-1 0-1 2-1z" fill="#705940" fill-rule="evenodd" stroke="#705940"/> <path d="m848 166h1l1 2v6q-1 2 2 2 2 0-1 2t-2 5 1 5v1h-1v-1h-1l-8-2v3l-1 1-1 2 1 3q1 3 3 4t1 3l-2 2h-1q-1 0-8-1l-6-1-2-2h-1l-2-2h-1v-4h1l1-1v1h3v-1h1v-1h1v-1h1v-2h1v-1h1l2-4q2-3 2-4l-1-2h3q4-1 5-4 1-4 2-5v-1h2q2 0 3-1v-1z" fill="#5b7246" fill-rule="evenodd" stroke="#5b7246"/> <path d="m75 332-1 1q-1 0-1-5 0-6 1-6 2 0 2 5t-1 5z" fill="#fbefb4" fill-rule="evenodd" stroke="#fbefb4"/> <path d="m645 346v-1l1 1q2 0 2 4v5l-1 1q0 1-1 1-1-1 0-1v-2q0-1-1-4l-1-4h1z" fill="#ced499" fill-rule="evenodd" stroke="#ced499"/> <path d="m180 190v2l-1 2q-1 2-1 6v5l4 8q0 1-2 1h-1l-1 1q-1-1-3-2-3-2-4-7l-2-5v-2q1-2 1-3v-2l2-2v-1l1-1h2l3-1q2-1 2 1z" fill="#eadcb6" fill-rule="evenodd" stroke="#eadcb6"/> <path d="m656 174h2l2-1q3 0 4 1 1 2 2 0h3v1l-1 4v4l-1 1h-2q-2 0-3-2h-1v-1h-1v-1h-1l-1-1v-1l-2-2-1-2h1z" fill="#f88b43" fill-rule="evenodd" stroke="#f88b43"/> <path d="m828 403v-1 2q1 3 42 2 42 0 42-1v-2q0-1 1-1l3 4q4 4 4 6v2h-5q-1 1-44 1h-44v-2h-2v-4l1-1v-2l2-2v-1z" fill="#f6c666" fill-rule="evenodd" stroke="#f6c666"/> <path d="m47 424 1-5 1 3q1 3 2 3 1 1 3 1h3l-2 1q-2 1-3 6v7h1v1h1v1h4q3 0 5-1 1-1 2-5 1-5-1-7l-1-2h83q82-1 84-1h1v-1l1-1 1 1h1v-4l6 9 5 10 1 1v4h1v1h1v3l-1 3-1 2v4q0 4-2 10l-4 14q-2 8-5 11t-9 5q-5 2-80 2-76 0-86-3t-11-10-5-10-4-23q0-21 3-23 3-3 4-7z" fill="#f9dca2" fill-rule="evenodd" stroke="#f9dca2"/> <path d="m780 158v-1l5 4q5 3 6 3h11q0 1-7 3l-6 1-2 2h-4l-2 2-3 2h-4l-2 1-1 1h-3v1l-1 1v1h1l1 1h4v1h-1q-2 1-8 1l-7 2h-7v-2h1v-1h1v-1h1v-1h1v-1h1l10-6q10-4 12-5t4-1h2v-1h-1q0-1-2-3l-1-3h1v-1z" fill="#85913e" fill-rule="evenodd" stroke="#85913e"/> <path d="m473 405v-1h1l3 3h1v1q0 1 1 1h1v1h1l1 1v1h1l1 1v1h1l1 1v1h1l1 1v4q0 4-1 6 0 3 11 8t12 6q0 1 1 1h1v1h1v1h1v1h1v1h1v1l1 1v1h-11l-10-1h-1l-1 1h-1v6h1l1 1 15 1q15 1 17 2t3 1h2l2 1 1 1h1v2h1l-2 2h-2l-1 1-2 1h-1q-1 0-3 1t-15 1-22-2l-9-4h-5v1h-1v1l-2 2v1l2 2v4h1v1h1v1h1v1h1v2l4 1q3 1 6-1 4-2 9-2t5 2q1 2 4 2h2v1l1 1 1 2v2h-2v1l-1 1v1h-1q-1 1-2 3-2 2-3 2t-21 2q-20 0-22-1-3-1-4-3-1-3-4-3-4-1-12 1l-8 2h-3v-2l-1-1v-1q0-2 3-9t-1-9q-3-2-18-6-14-4-18-7t-5-7q-1-5 4-12l5-8 2-2h-4l-3-1q-3-1-11-4l-8-3q0-1-1-1v-1h-1q0-1-2-2v-2h-1l-2-2h-1v-2h-1v-1h1l1 1h1v1l2-2v1h2q2 0 2-1t48-1q49 0 50-1t2-1h1v1h1v-1q0-2-1-3z" fill="#f8d693" fill-rule="evenodd" stroke="#f8d693"/> <path d="m118 190h3l1 3q0 2 1 4v7h-1l-4-1q-3-1-2-3v-4q1-2-2 1l-4 3v-3h1v-1l6-6h1z" fill="#e4641c" fill-rule="evenodd" stroke="#e4641c"/> <path d="m258 267h4q0 1 1 1h1l2 1h3v1l1 1v1h1l8 1q7 1 7 3t1 2 0 6q-1 5-1 6v2h-10l-1-1q-1-1-1-4-2-3-2-5-1-3-9-3-8 1-9-1v-1l-2-2v-1h-2v-2h1v-1h-1v-3h3q3 0 5-1z" fill="#fbcd24" fill-rule="evenodd" stroke="#fbcd24"/> <path d="m768 310h1v1h1v1h3q3 1 1 3v4l3-1q4-2 4 2l1 3v-1h1l1-3 2-3v1h1v1h1v1l1 1v4l1 3v2l-1 1h-4q-4 0-6-1t-7-3l-4-3h-1v-1h-1v-2h-1v-1h-1v-3h1v-1h1v-1h1v-1l1-1v-2z" fill="#c2291f" fill-rule="evenodd" stroke="#c2291f"/> <path d="m806 392 4 4q3 4 6 4 3 2 8 2h4v2l-2 2v2l-1 1h-1v1l-2 2v2l-2 4v10q0 7 1 8 1 2 1 4v3h-1l-1 1h-1v1h-1v1h-2v1h-1v1h-1l-2 2h-2v-1h-1v-1q-1 0-6-7-6-7-10-10t-9-13l-5-9v-1l-1-2v-5h6l6-1h2q1 0 2-1l1-1 4-3q4-3 5-3h2z" fill="#fdfbf6" fill-rule="evenodd" stroke="#fdfbf6"/> <path d="m868 294h2v2h-1q-1 0-1 1l-4 7-4 8h-2v-10l1-3q2-3 3-3l2-1q2-1 4-1z" fill="#f3895e" fill-rule="evenodd" stroke="#f3895e"/> <path d="m412 347v-1h5l9 2q9 2 12 2h4v-2h1v1h1v1h31q31 0 37-2 7 0 9-1h2v1h-2l2 2h5l10 4q11 2 16 7 6 4 6 5v2q0 1-1 1 0-1-21-2-20-1-26-3-7-2-39-2h-32v-1h-1v5h3v1h1v1h1v1h1v2q1 1 8 0t12 2q4 3 7 7t1 10q-2 5-2 8-2 3-1 4 1 0 1 1h1v2q1 1 1 3v1h-1v-1h-1q-1 0-2 1t-52 1l-50 2v-1l-2 2v-1h-1l-1-1h-1v-1h-1v-1l-1-1v-2h1v-1l1-1h1l4-6 5-5h1v-1q1 0 1-1h1v-1q1 0 2-3 0-2-2-7-4-4-4-10t1-10l2-4h1v-2l-1-1v-1l3 1q4 1 6 1 3 2 10 1 8-1 10-1t3 1h1v1h1l1 1q2 1 4 1h9l1-1 2-1h2v-1h-1v-1h-3l-2-1q-1-1-4-1h-2l-2-1-1-1q-1 0 0-1l1-1h-1v-1h-1z" fill="#f3b845" fill-rule="evenodd" stroke="#f3b845"/> <path d="m820 293 4 1q3 0 4 1l1 1q-1 1-1 2l-3 1q-2 1-5-2l-2-3q1 0 2-1z" fill="#cb2c17" fill-rule="evenodd" stroke="#cb2c17"/> <path d="m194 203 2 2v1l4-1q3-1 4-1h1l-1 1q0 1 2 2t3 1v1h-3v2h-5l-5 1h-2q-2 1-1 3v3h1v1h1v1h1l3 3q3 3 4 3v1h-1v1l-1 2v1h-1v-2q-1-1-2-1h-1l-1-1q-2-1-4 0l-3 1-1-1v-1h-1q-1-1 0-2t-1-2l-2-2q0-1-1-1h-1q0-1-1-1h-1v-1h-1v-1h-1v-1l1-1h1q2 0 2-1l2-2 4-3q4-3 5-4l1-1z" fill="#f1c062" fill-rule="evenodd" stroke="#f1c062"/> <path d="m684 341h1v3q0 2-1 2h-4q-3 0-2-2t2-2q2 0 4-1z" fill="#cee0bf" fill-rule="evenodd" stroke="#cee0bf"/> <path d="m658 180v-1l2 2q3 3 4 3 2 0 3-1h1v1q0 1-1 1l-1 1h1q1 0 1 2v3h-2q-1-1-2-1l-1-1q-1 0-1-1 0-2-2-5l-2-3z" fill="#e65e0f" fill-rule="evenodd" stroke="#e65e0f"/> <path d="m200 171 4 1 3 4 4 4 1 2v2q0 3-2 5 0 2-3 1-3 0-4-4-2-3-4-4-2 0 0-1l2-1q1-1-2-4-3-2-3-4t4-1z" fill="#d95513" fill-rule="evenodd" stroke="#d95513"/> <path d="m909 254-1-3h2l2 3q2 2 2 6t-1 4l-1 1-1-1v-4l-2-6z" fill="#f1845c" fill-rule="evenodd" stroke="#f1845c"/> <path d="m91 234 3-1v1q0 1 1 3v2l1 3q0 4 2 6 0 1 1 2l1 2v1l-1 1-1 2-2 2h-2q-2 0-5-3l-3-3v-1l-1-3q-1-3-1-5t2-5 5-4z" fill="#da500d" fill-rule="evenodd" stroke="#da500d"/> <path d="m984 330h2l-2 2q-2 2 4 2 6 2 8 2 2 1 2 0 0-2-1-3v-1h1q1 0 1 1v1h1v4q0 3-2 6t-3 3h-1v-1h-19v1h1v1l1 1v1h-2v-1h-1v-2h-1v-1h-1v-6l2-2 2-3v-1h1l1-1h1q0-1 1-1t2-1h1q0-1 1-1zm-5 4q1 0 1 1t-1 1-1-1 1-1z" fill="#191816" fill-rule="evenodd" stroke="#191816"/> <path d="m604 149 1-1 9 1q10 1 22 1h21q8 0 8 1v1q1 0 1 5v5l2 2v3l2 2v1h1v2l-1 2v1h-1v-1h-3q-1 2-2 0-1-1-4-1l-2 1h-3l1 2 2 2v2h-2l-1 1h-1v-2h-1v-1h-6v-1h-1v-1h-1l-1-1v1h-2l-1 1v-1h-1q-1 0-4-2-2-2-2-1h-2q-2-1-20-3-19-2-29-2l-10-1v-1h1l2-2h3l6-2q5-2 6-4t15-2q15 0 20 1t16 1h11v-2h-2v-1h-1v-1h-3l-3-1q-2-1-10-1h-16l-7-2h-4q-4 0-3-1z" fill="#dc2018" fill-rule="evenodd" stroke="#dc2018"/> <path d="m828 134 1-4v4q-1 4-1 14v9h1v1h1v4h1v1h-1v1h-1l-1 1h-2v-7l-1-1q-1-1-1-2v-1h1q1 1 1-2v-2l1-6q1-7 1-10z" fill="#bfc27b" fill-rule="evenodd" stroke="#bfc27b"/> <path d="m361 292 1-1h1l9 1q9 0 22 6 12 4 20 10 8 5 18 15t10 11v2h1l-2 2h-2v3l1 3v2h1v1h1v3h-4q-3 0-12-2l-9-2 1-1 2-1h3v-1h-1v-1h-1q-1 0-2-2-1-1-3-9 0-8-2-11-2-4-7-7t-12-3-10 1q-3 2-6 1h-4l-1-1v-1h-1l-6-6-3-4h-1l-1-2v-1l-1-1-1-2v-2h1z" fill="#c8b498" fill-rule="evenodd" stroke="#c8b498"/> <path d="m603 347v-1h2v2q1 1 1 2v2q0 2-1 4 0 1-5-2l-4-3 1-1 3-2q2-1 3-1z" fill="#faedbb" fill-rule="evenodd" stroke="#faedbb"/> <path d="m804 161v4l4 1q3 0 4 1h1l2 1 2 2h1v2h-2l-1-1h-3q-2-1-13-1h-11l-4 2h-3l2-2h4l2-2 6-1q7-2 7-3l1-2 1-1z" fill="#868a5e" fill-rule="evenodd" stroke="#868a5e"/> <path d="m774 294h1v1h1v2h1v1q-1 0 0 5t-3 6l-5 1h-1v2l-1 1h-1l-1 1h-1l-1-1h-1l2-5q2-4 6-8 4-5 4-6z" fill="#e03a11" fill-rule="evenodd" stroke="#e03a11"/> <path d="m484 197 2-4h1l1 1h1v4l1 2v-1q0-1 1-1h1v1q0 1-6 6l-5 5v1h-1q-1-1-2-1v-3l1-2h1l1-1h1v-2q0-1 2-5z" fill="#d39475" fill-rule="evenodd" stroke="#d39475"/> <path d="m875 218v3h-1v1h-2q-2 0-2-2 0-1 2-2h3z" fill="#cd7f58" fill-rule="evenodd" stroke="#cd7f58"/> <path d="m532 132h1l1-1h1v1l-1 2v2l-2 2v1q0 1-7 10l-7 9v1h-1v1h-1v1h-1v1h-1v2h1v1h-1l-2 1h-1v1h-1v1h-1v1h-1l-1 1h-2v1h-1v1h-3v-1h1v-1h1v-1h1v-2l2-2 5-7q5-6 4-7h-1v-1h1l1-1v-1h2l1-1v-2h-1l-1-1 1-1 4-3q3-4 4-4h1v-1h1v-1h1l2-2h1zm-11 12v-1q1 0 1 1h-1z" fill="#88953a" fill-rule="evenodd" stroke="#88953a"/> <path d="m170 288 2-2 8 2v1h1v3q1 2 1 3v1l-1 2q-1 1-5 1-5 1-7-1l-2-2v-1q1-1 1-3t2-4z" fill="#f8c474" fill-rule="evenodd" stroke="#f8c474"/> <path d="m924 291q4-1 4 2t-4 4-4-2 4-4z" fill="#f58c62" fill-rule="evenodd" stroke="#f58c62"/> <path d="m112 293v4l-1 3v2h-1l-5-4-10-6-5-4q0-1-1-1v-1h-1v-1h-1v-1h-1v-1h-1v-1h-1v-1l1-1h-1v-2h2v1h1v1h1q1 0 1 1h1v1h1q1 0 0-3l-1-3q-1 0-1-1l1-1q1 0 4 3 2 3 10 8 7 6 7 7l1 1z" fill="#eaa815" fill-rule="evenodd" stroke="#eaa815"/> <path d="m207 196v1l-1 3q0 2-1 3v1h-1q-1 0-4 1l-4 1v-1l-2-2v-2l2-3q3-2 7-2h4z" fill="#8d882c" fill-rule="evenodd" stroke="#8d882c"/> <path d="m816 170h2v2h-1l-1 1q0 1 2 1h1l-1 3q-1 3 2 3h4v4q1 3 0 3h-1q0-1-5-1-4 0-12 2l-9 2-4 2h-3l2-2h3l1-1 2-1 4-1q4-1 4-2 1-1 0-2l-1-1h4l1-3q2-3 4-4 1 0 0-2v-2h1l1-1z" fill="#727139" fill-rule="evenodd" stroke="#727139"/> <path d="m718 173v3q-1 0-4 8l-4 8q-1 0-1 1h-1v1h-1q-1 0-3 3l-3 3h-1v-2q-1-1-2-1-1-1-5 1l-5 1v1h-2v1h-2q-1 1-4 1h-4q-3 0-10-4-8-2-13-8l-7-7v-2l-1-3v-2h1v1h1v1h6v1h1v2h1l1-1h3l1 1 1 3q1 2 1 4 0 1 1 1l1 1q1 0 2 1h2v1l1 1v1h3q2 0 2-2t5 0 5 1q1-1 2-1h2v-2q0-1 1-2t-1-5l-1-4h1l1-1h7q7-1 8-4 0-4 4-5 5-1 7 1l3 3z" fill="#c43b04" fill-rule="evenodd" stroke="#c43b04"/> <path d="m105 344v-2l1 1q2 1 12 2 9 1 10 1h1v2h-10q-9 0-11 1l-3 1v-2q1-1 0-4z" fill="#f7d35f" fill-rule="evenodd" stroke="#f7d35f"/> <path d="m446 223v-1l1 2q1 2 3 2h1l-3 2q-3 2-4-1v-3h1q1 0 1-1z" fill="#949446" fill-rule="evenodd" stroke="#949446"/> <path d="m227 197v-1h1l3 12q3 12 3 20 1 7-1 6-2 0-2 5 1 5 0 5h-1l-1-2-4-4h-4v1q-1 0-1 1h-1q-1 0-2-2-1-3-1-2h-7q-3 0-2 3 1 2 1 3l-1 1h-8v-1h-1q0-1 1-4 2-4 2-5v-3l1-2v-1h2l1 2q2 3 3 3h1v-1h-1v-2q0-1 1-3v-1h1v-1l1-4q1-4-1-6l-2-2h-2v-3h4v1h7v3q1 3 1 4v1h1v1h1v1h6v-8q0-2-2-3l-2-1v-4l1-2q1-1 1-2v-1h1v-1h1q0-1 1-1zm-5 29q3 0 4 1 2 1-1 4-2 3-3 2 0-1-2-1-1 0 0-3 0-3 2-3z" fill="#f0c261" fill-rule="evenodd" stroke="#f0c261"/> <path d="m755 410-4-7h1l2 2v1h1l2 3q1 3 2 3v1q0 1 1 1 0 1 1 1v1q1 0 1 1t-1 1l-1-1h-1v-1q-1 0-4-6z" fill="#f5cd7b" fill-rule="evenodd" stroke="#f5cd7b"/> <path d="m944 356v-4 1q0 1 2 1h1l1 3q2 2 5 3 3 2 3 3t-1 2v1h-1q-1 0-5-3-5-3-5-7z" fill="#9a952c" fill-rule="evenodd" stroke="#9a952c"/> <path d="m443 164v-1l7 2q8 3 10 3h2l2 2h-1l-1 1q-1 1-2 1h-1v1h-1v1h-1v1h-1q0 1-2 1-1 0-2-1l-2-2q0-1-4-5l-3-4z" fill="#f4e1db" fill-rule="evenodd" stroke="#f4e1db"/> <path d="m862 295v1q-1 0-3 3l-1 3v10h-6v1h1v1h3l2 2h2q1 0 6 1h6v2l-2 2v1h-1l-3 2-4 4h-2v1h-1q-1 1-3 1h-4v-1h-1v-1h-2q-1-1-2-4l-1-4h-1q-1 0-6 4t-11 5-9-1q-3 0-8-5l-5-5v-1h-1v1h-1v1q0 1-1 2l-4 4-4 3h-2l-2 2h-2v-1l1-1v-1l-1-3v-4h1v1-5q0-2-2-4l-2-2v-1h1v-1h1v-1h1v-1h1l1-1h7q6 0 6-1v-1l2 2v1h2q1-1 1 0l1 1v1h5l-3 2h-2v1h1v1h3q3 0 4-1h2v4h-1q0 1-1 2v1h2v-2h2l2-3q1-3 4-3l4 1q0 1 1 1h1l1 1h1v-3h-1v-1h-1v-1h-1q-1 0-1-2 0-1 2-1 1-1 2-1h1v-2h-6v-1h-1v-1h1l2-2h1v-2h2v-1l5-1q5-2 7-1 2 0 1-1 0-1 5 0 6 0 6 1t1 1 1 1zm-17 0v-1h1q0 1-1 1z" fill="#c91c16" fill-rule="evenodd" stroke="#c91c16"/> <path d="m997 332 1 1v1h2v1q0 1-3 1t-9-1q-7-1-8 0-2 1-2-1l1-1q0-1 1-1l1-1h1q0-1 1-1h8q5 0 5 1l1 1z" fill="#565656" fill-rule="evenodd" stroke="#565656"/> <path d="m55 182q4 0 4 2-1 1-4 2-4 0-4-2t4-2z" fill="#fbefb1" fill-rule="evenodd" stroke="#fbefb1"/> <path d="m48 250v1h1v1h1v-1q0-1 1 0l3 3h1l1 1 1 2q1 2 1 3l-1 2q-1 3 0 6 1 2 0 2t-1 2q-1 2-2 2t1 2l2 2q0 2 1 2 2 0 2 2v1h1v1h1v2h-1v-1h-1v-1h-4v2l-2 2v-2q0-1-1-1 0-1-4-1l-4-1v-1l-1-1v-1h-4l2-1 3-3q1-2 2-8 1-5-2-8l-3-4h1v-1h1v-4l1-1v-2h1q2 0 2 2z" fill="#f9d033" fill-rule="evenodd" stroke="#f9d033"/> <path d="m492 261 2-1h3l-2 2h-2l-1 1-2 1h-2q-1 0-4 2-2 1-2 2l1 2h-1q-1 0-1-1-1 0-1-3v-3l1-1h10l1-1z" fill="#a9ad51" fill-rule="evenodd" stroke="#a9ad51"/> <path d="m466 214h2v1q0 1 1 2v1h-1l1 4q1 5 0 5t-1-1-2-1l-1-1v1h-1v-1q0-1 1-5v-4q0-1 1-1z" fill="#e4dbb7" fill-rule="evenodd" stroke="#e4dbb7"/> <path d="m828 285q-1 1 0 1 0 1 2 2 1 0 0 1v2h-3q-3 1-5 1l-2 1q-1 1-2 1l-1-2q-1-1 0 3t1 5v2h-2q-3 0-3-1h-1v-1 3l2 1q1 2 2 2h1v2h-7l-2-1-1-1h-1v-1l-2-2v-2l1-1v-1h-2v-2l2-2q3-2 5-5 3-2 8-4 4-2 7-2t3 1z" fill="#d0241c" fill-rule="evenodd" stroke="#d0241c"/> <path d="m899 245v-1h1v9h1l1-1 4-2q4-2 4-1-1 1-1 2h-1q-1 1-2 1 0 1-2 4l-1 4 3 1q3 1 4 2h1v1l1 1q0 1 1 2t-3-1-5-1-1 6v3q-2-3-3-4-2-2-2 2-1 5-2 4-1-2-3-1t-1-1q1-1 1-6 2-5-2-6h-4v-1h-1v-1h-1v-2h2q3 0 3-2l-1-1v-1l-2-2v-6h2l1 2q1 2 1 3v1h1v1h1v1h1v-1h1v-3q0-2 1-3v-1h1v-1h1z" fill="#75712d" fill-rule="evenodd" stroke="#75712d"/> <path d="m890 287v-1h1v1h1v1h-1v1h-1v1l-1 1q-1 1-2 5l-1 3-1 1v2h3l2-2h3v-1q1 0 1-1h5l3 1 4 1h-2l-2 1-1 1h-2q-2 0-3 1t-5 4l-4 3v1h-1l2 2q1 3 4 7 2 5 3 6l1 1v8h-1v-1h-1v-3l-2-2v-1q0-1-2-2v-2h-1v-1h-1v-1h-1v-1h-1v-1h-1v1h-1l-2 7q-2 7-2 8-1 0-1 1-1 0-1 1t-1 1q-1-1 0-2 1-2 1-9v-6q-1 0-6 3t-8 4l-4 1v-1l1-1h1l4-4 3-2h1v-1l2-2v-2h-6q-5-1-6-1h-2l-2-2h-3v-1h-1v-1h13q5 0 6-1l1-1h2v-2q0-2-2-7l-2-5v-6l3-3h1v3q0 4 1 6l1 1v2h1v1h1v1h1v-1h1v-3l2-3q2-2 2-3h1v-1h1v-1h1v-1h2v-1h1z" fill="#67792c" fill-rule="evenodd" stroke="#67792c"/> <path d="m153 207 1 1v3q0 1 3 1 3-1 1 2-1 2 0 2 2 0 1 1v2h-1v1h-1v1h-1v2l-1 1h-1q-1 0-4-1-2-1-2-2t-1-1h-1v-1h-1v-1h-1l1-1q1-1 0-2l-1-2h2q3 0 4-3 1-2 2-2t1-1z" fill="#888a24" fill-rule="evenodd" stroke="#888a24"/> <path d="m797 149v-1h1q1 0 3 2l5 5 4 3v1q0 1-1 2l-2 1h-1v1h-2v-3q0-2-1-2t-3-1q-1-1-2-3-2-3-3-4h-1 2q1 0 1-1zm1 4q0-1 1-1l2 2q0 1-1 0-2 0-2-1z" fill="#d3cdbe" fill-rule="evenodd" stroke="#d3cdbe"/> <path d="m341 393 1 7q0 6-1 11t-4 6-3 2h-1v1h-1v1h1v1l5 5q6 5 6 9 2 4 1 12t-4 15-6 12l-3 4v1l2 1q3 1 3 2t1 1h1v1h1v2h-2l-1-1h-1v2l-1 1v1h-2q-2 0-35 1t-36-1h-3v-1h-1v-1h-2v1l-2-2v-2l1-1q1-2 1-3t2-3q2-1 2-2t3-3l3-2v-2h-1q0-1-7-7l-6-7h-1v-1h-1v-2h-1v-1h-1v-11l1-1q1-1 2-4 2-3 5-5l2-2h2v-1h1v-1h1v-2h-3q-3 0-8-1l-5-1v-3q0-3 3-14l3-11v1l1 1v1l1 1h42q41 0 43-3 1-2 2-2z" fill="#f8d38b" fill-rule="evenodd" stroke="#f8d38b"/> <path d="m122 164 4 1q3 1 4 1h1v1h1v1h1v1h1v2h-1v1h-1v1h-1v1h-2l-3 1q-3 1-6 4l-4 3h-5v-1h-1v-8l1-1v-1h1l1-1h1v-1q1-1 4-3 2-1 3-1h1v-1z" fill="#db510e" fill-rule="evenodd" stroke="#db510e"/> <path d="m126 198 4 3q5 3 8 2h4q2-1 4-1h4v1h1v1l1 1q0 2 1 2 0 1-1 1t-2 2q-1 3-4 3h-2l1 2q1 1 0 2l-1 1v1h1q0 1 1 1v2q-1 3-2 3l-2 1q-1 0-1 1h1v1l2 2v2h-3v1h-1v1h1v1h-1l-1-1h-1v-1l-6-6q-5-3-11-5l-6-2 1-1h2v-4h-1v-1l3 1q4 1 6 1h1v-1h1v-3q0-2-2-5-1-3-2-3h-1v-5l1-1h2z" fill="#f4b92d" fill-rule="evenodd" stroke="#f4b92d"/> <path d="m531 231 1 1h2l2 2h2v2l-2 2h-3l-1 1q-2 1-6 1-4 2-16 2l-12 1q0-1-8-1h-8v-1q-1-1 2-1 3-2 6-2h4l4-2h-18 1v-1h1v-1h1v-1h1l1-1h2l7-2q8-2 18-2 11 0 14 2 4 0 5 1z" fill="#899736" fill-rule="evenodd" stroke="#899736"/> <path d="m299 111q0-2 2-2t2 1 3 1q2 1 3 2 1 2-1 4-1 3-4 3-2 0-3-2t0-3q0-1-1-1-2-1-1-3z" fill="#fa9160" fill-rule="evenodd" stroke="#fa9160"/> <path d="m92 203h1l2 2q3 2 2 7l-1 4-2 1h-2q0-1-1-2t-1-7q1-5 2-5z" fill="#423418" fill-rule="evenodd" stroke="#423418"/> <path d="m789 114v1l-2-1h-3q0-1 3 5 3 7 6 12t4 5 1 1 1 2v3h1v3-1h-1l-1-1v-1h-1l-1-1v-1h-1l-1-1q0-1-1-1-1-1-6-10t-7-17 3-3q6 5 6 6z" fill="#95a047" fill-rule="evenodd" stroke="#95a047"/> <path d="m450 181v1l2 2 1 3q1 3 2 3v2l1 1 1 4q1 4 2 5h-1v1h-1v-1l-1-1v-2l-1-1-3-6-2-5v-3l-2-2-1-3q-1-3 0-3t2 2 1 3z" fill="#a1ab48" fill-rule="evenodd" stroke="#a1ab48"/> <path d="m487 284h1v1q0 1-7 7l-7 6 4-4 4-5q4-5 5-5z" fill="#e2cfa0" fill-rule="evenodd" stroke="#e2cfa0"/> <path d="m838 208h10v1h1v1h3v2h-11v1h-1v1h1v1h1v1h2v1h1l1 1v2h1v1l1 1q0 1-2 1-1 1-3-1l-3-3-2-1h-3l-1-1 1-4q1-3 1-4 1-1 2-1z" fill="#806a28" fill-rule="evenodd" stroke="#806a28"/> <path d="m775 282 1-1h2v3l-1 2q-1 2-1 4v1l-2 2v1q0 1-4 6-4 4-6 8l-2 5-1 1h-1v2l-1 1q-1 1-4 5l-3 5h-1v1h-1v2h-1v1h-1v1h-1v1h-1v2h-2v-2l1-1 1-2v-2l2-2 10-18q12-19 12-20v-1h1v-1h1v-1l2-2v-1h1z" fill="#fb9258" fill-rule="evenodd" stroke="#fb9258"/> <path d="m803 390h2q1 0 1 1v1h-2q-1 0-6 3l-4 4v-2h1l7-7h1z" fill="#f3cb78" fill-rule="evenodd" stroke="#f3cb78"/> <path d="m771 125v-1l1 2q2 1 2 2v2h-2q-1 0-1-1h-1v1h-1v-1q-1-1-2-1-1 1-1 0v-3q0-1-3-4l-3-3-2-4q-3-3 1 0 3 4 7 8t5 3z" fill="#a7ad5a" fill-rule="evenodd" stroke="#a7ad5a"/> <path d="m817 292 1 2 2 3q3 3 5 2l3-1q0-1 1-2h2l2-2h1q2 0 2 1l-1 1h-1v2h-1l-2 2h-1v1h1v1h4q4 1 4 2t-3 1q-4 0-4 1 0 2 1 2h1v1h1v1h1v3h-1l-1-1h-1q-1 0-1-1l-4-1q-3 0-4 3l-2 3h-2v2h-2v-1q1-1 1-2h1v-4h-2q-1 1-4 1h-3v-1h-1v-1h2l3-2h2v-2h-1q-1 0-2-2l-2-1v-3 1h1q0 1 3 1h2v-2q0-1-1-5t0-3z" fill="#7b6f2a" fill-rule="evenodd" stroke="#7b6f2a"/> <path d="m0 320v-320h1024v641h-1024v-321zm315-247v1q1 1 1 2l-1 2-3 3v1h-1v2h-1 3q3 0 5-3l2-3h2l-1 2-1 1v2h-1v1h-1l-1 1q-1 1 1 4t1 3q-1 1 0 4 1 4 2 14 1 9-3 16-2 6-8 10t-17 4-16-3-8-9-4-12q-1-7 1-10 0-4 4-10 4-5 12-9 7-3 15-4h8v-5q1-6 1-7 2-1 2 3 0 3 2 1 2-3 4-3 1 0 1 1zm451 41v1l2 3q2 4 3 5v1l1 2q2 1 2 2v2l6 5q5 5 10 7l4 2 3 1q3 1 3 0l-1-1h-1v-1l-1-1h-1v-1l-2-2q0-1-1-1-1-1-6-10t-7-17 3-3l5 6h1v1l5 6q4 5 5 6 1 0 2-2 1-1 1-2h1q0-1 1-1l4 1q3 1 5 4 3 4 2 9l-1 5v1q0 1-3 3l-2 1v1h-1l1 3q1 4 2 4t1 1 7 7q7 5 7 4v-8l-1-1q-1-1-1-2v-1q0-1-1-3l-1-2v-13q0-14 6-24 4-10 6-10 1-1 1 15 1 16 0 16l-1 6q-1 6 2 6 3-1 3 0h2q1 0 2-11l1-11v-1l1 1q1 0 5 9 4 8 6 16l2 7 4-4v-1h1v-1h1v-1l7-7q7-7 9-8 3-1 3 0-1 1-12 11l-12 11v2l5 8q4 8 5 13t1 6l3 2q3 1 5 5t2 5v10l6 2q6 2 10 6t4 11-2 10l-2 3h1l7 1q7 1 11 5 3 4 4 5v1h1v1l1 3q1 2 0 11t-4 13q-3 5-3 8 1 2 4 1 4-1 14 0 9 1 14 4 6 3 9 7t3 7q2 3 1 10t-4 13-9 10-7 5h-1v1h-1l3 2q4 2 4 3h2q0-1 1-1h1l1-1h1l4-1q5 0 10 2t6 2q0 1 1 2h1v-1l2-2v-2h-1v-1h-1v-6l2-2 2-3v-1h1l1-1h1q0-1 1-1l1-1h2q0-1 1-1h7q5 0 5 1l1 1h1v1l1 1h1v4q0 3-3 6l-3 3v1q0 1 2 3t3 7-1 6q-1 2-8 2-6 0-12-3l-6-4v1l-1 1v2l1 1v7h-1v1h-1v1l-5 3q-5 2-6 5-1 2-4 7-3 4-9 8t-18 4q-13 0-14 1l-1 1 3 4q4 4 4 6v1l2 2v7q0 8-1 9t-4 6-11 8l-8 3v1l1 1q1 2 1 8 0 7-3 10-2 2-9 6t-8 6q0 3-2 8-2 4-10 8t-19 4h-15q-5-2-16 0-11 0-16-1-4-1-9-4t-10-4l-5-2v-2h-1v-1h-2l-2-2h2v-1h1v-1l10 2q11 2 13 2t4 1l2 1h4v-2l-1-2v-2l-2-2v-1q0-1-5-7-4-6-22-30l-19-23v-1h-1v-2q-1 0-4-6l-3-6h-1v-2q-1-1-5-12-6-10-10-10-5 0-8-3l-3-2q-1 0-1 3 0 2-2 1l-6-2q-4-1-5-3l-1-2h-2v1q0 1-1 1h-1v1q0 1-2 2l-1 1 1 2q0 2-2 2-1 0-1 2 1 1 1 4v3l-2 2v1h-1l-2-2h-1l-1-1h-1v-2l-1-2q0-2-1-1-2 0-3-5l-2-5h-2v1h-1v-1h-1v-1h-1v-2l-1 2v4l-1 2v2h-1v-1h-1q-1 0-4-3l-2-2v1q0 1-1 2h-1v1h-1v1h-2v-2l-1-1v-7q0-2-4-2l-3-1h-1q0-1-2-1-1 0-2-3l-2-2h-3l-3 1h-2v1l-1 1v2h1v1h1v1h1v2q1 1 3 1t1 1q0 2 2 2 1 0 1 4 1 3 6 12 5 10 6 11l1 1v2l4 8q4 9 10 14t6 14q0 8 2 10 0 1 5 7t7 13q2 8 0 14 0 7-3 8-2 0-3 2t-28 2h-32q-6-2-10-4-5-2-6-8v-10q2-2 3-6l1-5v-1h-2l-5-1q-5-1-8-1-3-2-7-2h-10q-6 0-9-4-3-5-9-24l-4-20-1-2v-3q-1 0-1-3 0-4-1-20v-16h-1v1h-1v1h-1v-1h-1q0-1-1-1 0 1-1 1 0-1-21-2-20-1-26-3-7-2-39-2h-32v-1h-1v5h3v1h1v1h1v1h1v2q1 1 8 0t12 2q4 3 7 7t1 10q-2 5-2 8-2 3-1 4 1 0 1 1h1q1 0 1 1l4 2v1l1 1h1v1l1 1h1v1l1 1h1v1l1 1h1v1l1 1h1v5q0 4-1 6 0 3 11 8t12 6q0 1 1 1h1v1h1v1h1v1h1v1h1v1l1 1v1h-11l-10-1h-1l-1 1h-1v6h1l1 1 15 1q15 1 17 2t3 1h2l2 1 1 1h1v2h1l-2 2h-2l-1 1-2 1h-1q-1 0-3 1t-15 1-22-2l-9-4h-5v1h-1v1l-2 2v1l2 2v4h1v1h1v1h1v1h1v2l4 1q3 1 6-1 4-2 9-2t5 2q1 2 4 2h2v1l1 1 1 2v2h-2v1l-1 1v1h-1q-1 1-2 3-2 2-3 2t-21 2q-20 0-22-1-3-1-4-3-1-3-4-3-4-1-12 1l-8 2h-3v-2l-1-1v-1q0-2 3-9t-1-9q-3-2-18-6-14-4-18-7t-5-7q-1-5 4-12l5-8 2-2h-4l-3-1q-3-1-11-4l-8-3q-1 0-1-1h-1v-1h-1q-1 0-2-2h-1v-1l-2-2q-2-2-3-5v-4l1-1v-1q0-1 1-2h1v-1q0-1 5-5l4-3v-1h1q0-1 1-1v-1h1q1 0 2-3 0-2-2-7-4-4-4-10t1-10l2-4-1-1v-2q0-2 1-2 0-1-1-4-2-4-2-10t2-11q2-6 3-8 1-3-1-4l-1-2h-1v-1l-1-1h-1v-1l-5-5-3-4h-1l-1-2v-1l-1-1-1-2v-2h1l1-1h1v-1h1v-1h1v-1h19q18-2 19-2h1v-1h1v-1h1v-5h1v-1h1v-4h-1q-1 0-3-1-3-1-3-2t-3-3q-4-1-6-7-4-6-4-11t3-9q4-3 19-7t18-7l3-3v-2l-1-1v-2l-1-1q-1-1-1-2t-6-15l-4-14-1-4v-4h1l1 1h1v1h1v1h2v1h1v1l8 8q6 8 8 11l2 3v1h1v1h1v-1h2v-1h7v-2h-1v-2h-1v-1h-1v-1q0-1-4-8t-7-19-4-13h-18q-13 0-16 2t-7 8q-2 6-3 21l-1 15v-1l-2-2v-1h-1v-1h-1v-2l-4-11q-4-11-4-22 0-12 5-18 5-5 11-8 7-2 19-4 12 0 38 3t28 4h4v-3q1-4 2-10l1-6 2-2v-2h1v-1h1v2l2 4v3q0 4 1 10v7l1 1v1h1v-1l3-1q2-1 4-1h2l2 2q2 1 3 2 0 2 1 2h2l4-6h1l1-1 4-3q3-4 4-4h1v-1h1v-1h1l2-2h2l1-1h1v1l-1 2v2l-2 2v1q0 1-7 10l-7 9v1h-1v1h-1v1h-1v1h-1v2h1v1h3l4 1h11l2-2h1v-4q0-2-2-5l-2-3h-1l-2-2h10l1 1 2 1h1v1h1v1h1v1h1v11h-1v1h-1v1l-2 1q-1 1-9 2l-8 1h-1v2h2v2q0 1-1 2v1q0 1 1 2 0 1 1 9t-1 11-8 8l-6 4v1h-1v1q-1 1-4 3l-4 3q0 1-7 1-6 0-8-3l-3-2v-1h-2l-2 2h-1v1h-1v1h-1v1h-1v1h-1v7h2v2h1v1h3-1l1 1h2l1-1h2l7-2q8-2 18-2 11 0 14 2 4 0 5 1l1 1h2l2 2h2v2l-2 2h-3l-1 1q-2 1-6 1-4 2-16 2l-12 1h-2l-1 1h-4v1h1v1l1 1v2l-1 1v2h5l4-1q4-1 10-1h6v1h1v1l-1 1v1h-2v1h-1v1h-1v1h-1v1l-3 2q-2 2-11 6l-10 4-1 2q-1 2 1 4v8q0 1-1 1v1l-6 6-5 4q0 1-1 1v1h-1q-1 0-2 3l-2 2 1 1h1v1l2 5q2 5 1 8-1 4-2 7-2 3-4 4-1 1-2 1l-2 2h-1v1h-1v1h2l19 1q18 1 20 0h2q0-1 1-1h1l1-1h1l12-2q12-3 20-3 7 0 8 1h2l4-1 4-2h1l1-1h1l3-23q4-24 8-40 4-17 8-21 3-5 8-5t7 2 4 1q3-1 7-3 5-2 8-2 2 0 4 1h2v-1h1l1-1v-2h-1v-1h-1v-2h-1l-2-6q-3-6-2-12t4-12q3-5 7-8l6-3q1-1 2-1h2v-3l-2-2v-3l-1-2v-2h-1q-1 0-1-1h-1q-2-1-20-3-19-2-29-2l-10-1h-1v-1h-2q-1 0-6-2l-5-2-2-2h-1l-2-2h-1v-1h-1v-2h1v1h14q9 0 13-3 5-3 6-4 2-1 3-1h16l9 1q10 1 22 1h21q8 0 8 1l3 1q4 2 24 3t24 2l5 1h7l-14 1q-14 1-17 1h-3l-4 2h-2v1h26q2 1 4 1h2l1 1h1v3q0 4-1 6v2q-1 1-1 4-2 2-6 7l-4 5q0 1-1 1v1h-1q0 1-4 4l-3 2v2q1 2 1 4v3l-1 9q-1 8-3 14l-3 6-1 1v1l-5 4-4 5v1q1 2 1 8 0 5-1 8-1 2-5 5l-5 3q-1 1-1 5-2 4-11 21-9 18-9 21t-2 4-2 3q1 1-1 1t-3 1v2h-1v1h-1v2l-1 1v2h2l1 1 2 1h4l1-2q1-2 3-4 3 0 5-1t3 0q0 1 2 0 1-1 1-3-1-1-1-4v-3l1-2v-2h1l1 1h1l1 2q1 1 1 3v2h1v-1h1l1-2q1-2 2-3l2-2h1v12h1v-1h1v-3h1v-1h1v-1h1v1h3l-1-2q0-2 1-2t2-4q0-3 1-2 1 0 2-2l1-2 2-2h1v-1h1v-1h1v-1h1v1l1 2v1h2v1l-1 1-1 3q-1 4 1 4t1 2q-1 3 1 4 1 0 0 1v2h-1v1h-2v1h-1v1h3v-1h1v-1h1v-1h1q2 0 2 1v1h1q1 0 2-2 1-3 4-3t5-2 3-1q1 0 1 3v2h1v-1h1l3-3q3-2 4-3h1v2h4l10-21q10-21 19-34t19-26q10-12 14-20 4-7 6-14t2-8v-1l2-2v-1h1v-2h-2l-1 1-2 1h-2l-2 1q-2 1-16 3l-13 4h-8v-1h-1v-1h1v-1h1v-1h1v-1h1v-1h1v-1h1v-1l10-5q9-5 10-6l2-1h2v-3l-1-3-1-4-2 2h-2l-2 1q-1 1-6 2l-6 1v1h-2q-2 1-8 1l-7 2h-7v-2h1v-1h1v-1h1v-1h1v-1h1l10-6q10-4 12-5t4-1h2v-1h-1q0-1-2-3l-1-3 1-3q2-4 4-4 2-2 6-2h8v-1l-1-1h-1v-1h-1v-1h-2v-1h-1l-1-1h-1q-1 0-2-1t-10-2l-10-1h-8q-6 0-12-1l-6-1h-2q-2 0-6-2l-4-2h-2l-2-2h-2v-1h-1v-1h-1l4-1 3-1h1l8 1q7 1 8 1h2v-1q0-1-1-3l-1-3 1-3q1-2 2-3t2-1h1v-4h-1l-1-2v-1l-1-1-4-8q-5-7-5-8 0-2 5 2 5 3 13 12l8 8zm-618 28h2l14 2q14 2 22 5l7 3 9 4q9 4 18 14 10 12 14 15 4 4 6 13l4 18q2 10 2 16v5l1 3 1 2v-2l2-2v-2l5-6q5-6 7-7 3-1 3-2h1v-3h-1l-4-4q-4-4-7-9-4-6-4-15v-12h1v-2l1-1v-2h1v-1l1-1q1-1 6-3 4-2 5-4 0-3 5-3 6-1 12-1 5 0 6-1 0-1 2 1 3 2 5 1 1 0 3-2 1-3 2-3l11 1q11 1 15 3t6 4q1 2 6 2 4 0 8 1 4 2 5 5 0 4 1 4t4 1l4 1v5q0 1-4 7-4 5-10 10l-6 5v1h-1q-1 0-3 2l-2 1 2 4q2 5 5 13t3 18-2 15-5 7-3 3h-1v1h-1v1l1 1h1q1 0 1 1 1 0 1 1l2 1q3 1 3 10 1 9 0 12v3l1 3q2 3 2 17v22l-1 24q-1 23-1 24t-1 2v1l1 7q0 6-1 11t-4 6-3 2h-1v1h-1v1h1v1l5 5q6 5 6 9 2 4 1 12t-4 15-6 12l-3 4v1l2 1q3 1 3 2t1 1h1v1h1v2h-2l-1-1h-1v2l-1 1v1h-2q-2 0-35 1t-36-1h-3v-1h-1v-1h-2v1l-2-2v-2l1-1q1-2 1-3t2-3q2-1 2-2t3-3l3-2v-2h-1q0-1-7-7l-6-7h-1v-1h-1v-2h-1v-1h-1v-2l-1 3-1 2v4q0 4-2 10l-4 14q-2 8-5 11t-9 5q-5 2-80 2-76 0-86-3t-11-10-5-10-4-23q0-21 3-23 3-3 4-7l1-5v-1q0-1-2-3 0-2-3-4-3-1-3-16 0-14 2-15 2-2 2-6t-2-6q-3-2-3-9v-20l1-13q0-1 1-1h1q0-1 1-1 1-1 1-6 0-4-2-6-3-2-2-17v-15l2-1 3-3q1-2 2-8 1-5-2-8l-3-4h-3v-10q-1-9-1-22 0-12 3-13t5-4l2-3v-1q0-1-1-2l-4-4q-4-3-4-24v-21h9q9 0 10 2 2 2 6 2h4q1 0 2-2t14-1q14 0 15 3 2 2 5 2 2 0 22-8t22-8zm598 21q-16-3 0-2 15 2 15 4t-15-2z" fill="#fdfcfb" fill-rule="evenodd" stroke="#fdfcfb"/> <path d="m412 352h6q3 0 4 1l2 1h3v1h1v1h-2l-2 1-1 1h-9q-2 0-4-1l-2-2v-1q-1-2 4-2z" fill="#f9f2db" fill-rule="evenodd" stroke="#f9f2db"/> <path d="m925 300q2 0 2 1 1 1-1 2-1 1-2 0-2 0-1-1 1-2 2-2z" fill="#f07c60" fill-rule="evenodd" stroke="#f07c60"/> <path d="m208 224 1 1v1q-1 2-1 3v1l-1-1q-1-1-1-4 0-2 1-3 1 0 1 2z" fill="#ec7d35" fill-rule="evenodd" stroke="#ec7d35"/> <path d="m707 194h1q0 1-3 3t-3 7v5q-1-1-2 0 0 1-1 1t-3-4-6-4l-4-1v-1h2v-1l5-1q4-2 5-1 1 0 1 1t3-1q4-3 5-3z" fill="#ee7e52" fill-rule="evenodd" stroke="#ee7e52"/> <path d="m122 204h2q1 0 2 3 2 3 2 5v3h-1v1h-1q-2 0-6-1l-3-1-2-2q-1-1-3-6l-2-6 1-1v-1l3-2q3-2 2 0v4q-1 2 2 3l4 1z" fill="#d34b0a" fill-rule="evenodd" stroke="#d34b0a"/> <path d="m812 171h2v2q1 2 0 2-2 1-4 4l-1 3h-6q-2 0-5-1h-4l-1-3-1-4-2 2h-2l-2 1q-1 1-6 2l-6 1v1h-1v-1h-4l-1-1h-1v-1l1-1v-1h3l1-1 2-1h4l3-2h3l4-2h11q11 0 13 1z" fill="#494f23" fill-rule="evenodd" stroke="#494f23"/> <path d="m418 143-2 1h-6v-3h2l2-1h7q7-2 14 0 7 0 11 1t4 3q2 1-7 0-9 0-16-1t-9 0z" fill="#f5855d" fill-rule="evenodd" stroke="#f5855d"/> <path d="m816 165h2l2 2q2 2 2 3v2q-1 0-1 1h-1l-1 1h-1q-2 0-2-1l1-1h1v-2h-1l-2-2-2-1v-1q0-1 3-1z" fill="#d9d0be" fill-rule="evenodd" stroke="#d9d0be"/> <path d="m139 290h11l4 2q3 1 3-1t3-1q2 0 2 3v4l-2 1v1l-2 1h-2l-2 2h-1l-8-2h-2v-1h-1v-1h-1v-1h-1v-2l-2-2v-3h1z" fill="#d9520d" fill-rule="evenodd" stroke="#d9520d"/> <path d="m766 114v2l-4-2v-1h-1v-1h-2l-1-1q-1-1-2-1h-1v-1h-1v-1h-3l1 1q2 1 2 2v1h-2v-2h-1v-1h-1v-1h-1l-4-8q-5-7-5-8 0-2 5 2 5 3 13 12l8 8z" fill="#8b983f" fill-rule="evenodd" stroke="#8b983f"/> <path d="m314 73h1v1q1 1 1 2l-1 2-2 2h-1v1l-1 1v2h-2v-1h-1l1-3q1-3 3-5 2-1 2-2z" fill="#aec4b9" fill-rule="evenodd" stroke="#aec4b9"/> <path d="m676 167v1q0 2-1 4l-1 3v1h-1l-1-3v-3h1l1-2q1 0 2-1z" fill="#e88553" fill-rule="evenodd" stroke="#e88553"/> <path d="m678 360v-1h1q1 0 1 1t2 1q1 1 2 0v1h1v1l-1 3q0 4 2 4 1 0 1-1 1-1 1-3v-3l1-1q1 0 1-1h1v1l1 2v2h2q2 1 2-1t2 1q1 4 4 4h2l-1 2q-1 1-1 3v3h1l1 2q0 2-2 2-1 0-1 2 1 1 1 4v3l-2 2v1h-1l-2-2h-1l-1-1h-1v-2l-1-2q0-2-1-1-2 0-3-5l-2-5h-2v1h-1v-1h-1v-1h-1v-2l-1 2v2h-1q0 1-1 2t-4-1q-3-3-3-2v2q0 1-1 2h-1v1h-1v1h-2v-2l-1-1v-7q0-2-4-2l-3-1v-2h2v-1l-1-2v-3h1v1h1v1h1v1h1q0 1 2-2 0-2 3 0 2 2 3 2h1v1h1v-1h1l2-1h2v-1q-1-1-1-2z" fill="#ecba4b" fill-rule="evenodd" stroke="#ecba4b"/> <path d="m752 108h2v1h1v1h1q1 0 2 1l1 1h2v1h1v1l4 2v-1l2 3q2 4 3 5v2q-1 1-4-3-3-3-6-4l-1-1v1l3 3q3 3 3 4v1q-1 0-5-4-3-3-6-4l-3-2v-4h-1l-2-4h3zm-1 2h1q2 0 2 1v1h-2v-2h-1zm4 2q0-1 1 0 2 0 2 1t-1 1l-2-2z" fill="#89943b" fill-rule="evenodd" stroke="#89943b"/> <path d="m700 339v1l-1 1q0 1-5 3-6 1-4-2 1-2 6-3 4-1 4 0z" fill="#d2b649" fill-rule="evenodd" stroke="#d2b649"/> <path d="m714 165-3-2h3q2 1 4 1h2l1 1h1v3q0 4-1 6v1h-1q-1 1-2 1v-6q0-2-1-2t-3-3z" fill="#e97d52" fill-rule="evenodd" stroke="#e97d52"/> <path d="m854 287-6 1-4-2h-2v-1q0-1 4-1h4l1-1q1-1 5-3t7-2 3 2q0 3-2 5-3 1-10 2z" fill="#ef5c3b" fill-rule="evenodd" stroke="#ef5c3b"/> <path d="m846 216h2q3 0 2 2v2h-4v-2l-1-1v-1h1z" fill="#ec6b4c" fill-rule="evenodd" stroke="#ec6b4c"/> <path d="m765 134 2 1q2 1 3 2v2h-1l-1 1h-8q-6 0-12-1l-6-1h-1v-1q0-1 12-1 11 0 11-1t1-1z" fill="#a0a953" fill-rule="evenodd" stroke="#a0a953"/> <path d="m145 220-1-2 2 1q2 1 2 2t2 2q3 1 4 1v2h-2q-1 0-2-1-2 0-2 1t-3 0h-3l2-1q1 0 1-1 1-2 0-4z" fill="#b4a935" fill-rule="evenodd" stroke="#b4a935"/> <path d="m782 285 6 1q6 2 10 6t5 4v1q0 1 1 1v6q0 1-6 1h-6l2-1q2 0 2-1v-1h-8q-2 1-2-2t-2 0l-2 2h-1v-1h-1v-1q0-2-1-4l-1-1v1h-1v-1l1-1v-3l1-2q1-3 2-3t1-1z" fill="#c8271e" fill-rule="evenodd" stroke="#c8271e"/> <path d="m658 264-1 4-1 2q-2 2-4 1-2 0-2-5 0-4 2-6t4-1 2 5z" fill="#fcf5a7" fill-rule="evenodd" stroke="#fcf5a7"/> <path d="m112 295v-2l4 3q4 4 8 7l4 3h1v2q-1 1-1 2h-6v1h-1v2q0 1-1 2h-1v-1q-1 0-2-2l-2-2h2v-1l-1-1v-1h-1v-1q-1 0-2-2l-1-2h-1v-2l1-3v-2z" fill="#f2b833" fill-rule="evenodd" stroke="#f2b833"/> <path d="m995 345v1h-1v2q0 1 2 3t3 7-1 6q-1 2-8 2-6 0-12-3l-6-4v-5h-1v-2h1v-1l2-2v-2h1v-1h9q8 0 9-1t2 0zm-19 5v-1 1z" fill="#dc9f24" fill-rule="evenodd" stroke="#dc9f24"/> <path d="m476 264h1v1h1v-1l1-1q1-1 1-2h2v1l-1 2q-1 1-1 3 1 3 2 3h6l-1 2q-1 2 1 4v8q-1 0-1 1h-1q0 1-4 5l-6 6q-1 0-1 1h-1v1l-2 2q-2 2-1 2 1 1 1 2v1h-1q-1-1-3-1h-2l-8 4q-8 5-8 11t-1 8l-1 2v1h1v1h1v1h2v2h-7v1h-1v1h-2v-2q0-1-10-11t-18-15q-8-6-20-10-13-6-22-6l-9-1v-1h1v-1h1v-1h19q18-2 19-2h2v-1h2l2-1h3l3-2q3-2 4-3t2-1 3-3 2-7q0-5 2-6 1-2 8-2 8 0 13 2t15 2h12z" fill="#e3cfa1" fill-rule="evenodd" stroke="#e3cfa1"/> <path d="m458 308 10-5h2v1h1l1 1 2 5q2 5 1 8-1 4-2 7-2 3-4 4-1 1-2 1l-2 2h-1v1h-1v1h-11v-2h-2v-1h-1v-1h-1v-1l1-2q1-2 1-8t8-11z" fill="#ca9b6b" fill-rule="evenodd" stroke="#ca9b6b"/> <path d="m332 272h1l1 1h1q0 1 1 1l2 1q3 1 3 10 1 9 0 12v3h-1v-6h-2l-2 2-1 3q-1 3-7 1-5-2-8 1-4 3-4 4t-6 1q-5 0-14-3-10-4-10-5t-1-1 0-3l1-2v-2q0-1 1-6 1-6 0-6t-1-2-7-3l-8-1h-1v-1l-1-1v-1h-3l-2-1h16q9 0 16-3 6-3 9-2l9 3q5 4 10 4 6 2 8 2z" fill="#fbd135" fill-rule="evenodd" stroke="#fbd135"/> <path d="m871 144-12 11h-1l4-4v-1h1v-1h1v-1l7-7q7-7 9-8 3-1 3 0-1 1-12 11z" fill="#6b877a" fill-rule="evenodd" stroke="#6b877a"/> <path d="m821 188h1v5l-1 1h-1v4h1l2 2h1l2 2 6 1q7 1 8 1h1l-1 1v1l-1 1v1h-1q-1 0-2 1 0 1-1 4l-1 4 1 1h-1q-1 0-1 2-1 1-3 4t-5 4q-2 1-4 4l-2 6v2h-1q-1 0-1-1t-3 2q-4 3-12 13-9 10-14 17l-6 8v2l-1 1-1 2 1 1h1q0 1-1 1t-2 3l-1 2v3l-1 1v2h-1v-2h-1v-1h-1v-1l2-2v-1q0-2 1-4l1-2v-3h-2l-1 1h-1v1l-2 2v1h-1v1h-1v1q0 1-12 20l-10 18-2 2v2l-1 2v1h1l1-1h1v-1h1v-1h1v-2h1v-1h1l3-5q3-4 4-5l1-1v-2h1l1-1h1l1 1h1l1-1h1v1h-1v1h-1v1h-1v3l-1 1h-1l-5 7q-5 6-8 11l-3 5-2 2v3h-1v1h-1v-1l-2-2v-1l-2-2v-20l10-21q10-21 19-34t19-26q10-12 14-20 4-7 6-14t2-8v-1l2-2v-1h1v-1l5-3q4-4 5-4zm-11 49v1h-1v1h-1v1h-1v1h-1v1h-2v-2l1-2 1-1v-1h1v-1h1l7-9q7-10 10-12t3 1q0 4-9 13-9 8-9 9z" fill="#f33b0b" fill-rule="evenodd" stroke="#f33b0b"/> <path d="m694 238h1v1q0 1-1 1t-5 4l-4 5v-1h-4l5-5q5-5 6-5h2z" fill="#e97c4d" fill-rule="evenodd" stroke="#e97c4d"/> <path d="m71 235v2l1 5q2 6 2 8v1h1v1h2v1h1v1h1-2q-1 1-1 9t4 13l4 5v1h1v1h1v1h1v2h1v1h1v1h1v2h1-12q-3 0-3-1-1-1-8-3l-7-3h-1q0-1-1-1t-2-2q-1-3-2-4-2-2-1-2t2-5q0-4 1-7l1-2 1 1q1 1 3-1 2-1 3-6l1-5h-1v-1h-1v-1h-1v-1h-4v1h-1v1q-2 2-2 4v3l-1-1h-1l-3-3q-1-1-1 0v1h-1v-1h-1v-1q0-2-2-2h-1v-10h1q1 0 2-2 0-2 11-2 11-1 12 1z" fill="#fbd434" fill-rule="evenodd" stroke="#fbd434"/> <path d="m385 154h-1v-3l1-2q1-1 5-2 4 0 0 4-4 3-5 3z" fill="#f3865c" fill-rule="evenodd" stroke="#f3865c"/> <path d="m688 352v-1l2 2q2 2 1 5v3h-1q0 1-1 1l-1 1q0-1-2 0h-1v-1h-1v-1h1q1 0 1-2-1-2-4-2h-4v2l-1-1h-1v-1l1-1v-1l5-1q5 0 5-1 1 0 1-1z" fill="#e0c46e" fill-rule="evenodd" stroke="#e0c46e"/> <path d="m838 168h3l-8 8h-1l2-4q1-4 4-4z" fill="#f18157" fill-rule="evenodd" stroke="#f18157"/> <path d="m105 342v2q1 3 0 4v2l-3 3q-3 3-8 3h-6q-1 0-2-1 0-1-2-5l-2-3v-1h3q3-1 4-4l2-4q1-2 5-2 5 0 7 3 1 2 2 3z" fill="#fcf9eb" fill-rule="evenodd" stroke="#fcf9eb"/> <path d="m795 141v-1l2 1q1 1 2 1v-2h1q1 0 2 2l2 3v1h1v1h1v1h1l1-1 1 3q1 4 2 4t1 1 7 7q7 5 7 4v-1h2q1 0 1-1v-1h2v1l-1 1v1h-1v1h-1v1h-1v1h-1v1l-1 2-1 3v-2h-3v-1q0-1 1-1t-2-3l-2-3q0-1-1-1t-1-1-4-1h-4l-1 1h-1v-2l2-1q2 0 2-1v-1l-6-5-6-4v-1h-2v-1h-1v-1h-1v-1h-1v-1h2q1 1 1 0 0-2-1-3zm5 3q1 0 1 1t-1 1-1-1v-1h1z" fill="#c9ac7d" fill-rule="evenodd" stroke="#c9ac7d"/> <path d="m245 244 1-7 1 3 1 2 1 6q1 6 6 10l6 6q2 2 1 2t-1 1h-3q-2 1-5 1h-5q-2 1 4 29t8 35q2 6 2 7v1h1l1 1v1h1l1 1h2l2 1h2q3 0 6 1l4 1h4v1h1v1h-4l-9 2q-10 2-13 10t-6 18q-3 11-3 14v2l-3 11q-3 11-3 14v3l5 1q5 1 8 1h3v2h-1v1h-1v1h-2l-2 2q-3 2-5 5-1 3-2 4l-1 1v6h-1v-1h-1v-4l-1-1-5-10-6-9v-1q0-1-7-11-7-11-19-18t-27-12-24-5h-19l-9 1v-29h4v-1h1v-29l8 1q7 1 14 1h10q4-2 5-2h1l2-2h4v-1h2q2-1 5-1 3-2 17-9t18-13q4-4 12-19l9-15h1v-2l1-2q1-1 2-8z" fill="#fdfcf9" fill-rule="evenodd" stroke="#fdfcf9"/> <path d="m153 197h6v1h-1v1l-1 1v2l1 3v1l4-1q4-1 5-1 1-1 1-2v-1h1l2 5q1 5 4 7 2 1 3 2v1h1v1h1v1h1q1 0 1 1h1q0 1 1 1h-2q-3 0-7 1l-4 1-1-1q-2 0-2-1t-4-1q-3 1-4 2v1h-1l-2 2h-1v-3h1v-1h1v-1h1v-2q1-1-1-1-1 0 0-2 2-3-1-2-3 0-3-1v-3l-1-1q-1 0-1-2l-1-1v-1h-1v-1h-2q0-1 1-2h1q1 0 1-1h1v-1q1 0 1-1z" fill="#edbf3e" fill-rule="evenodd" stroke="#edbf3e"/> <path d="m496 170h1v1h1v1l1 1v1h2l-2 2h-1v1h-1v1h-1v2l-2 1q-1 1-3 8l-1 6h-1v-1h-1l-1-1h-1v-13l-1-1h1v-2h-1v-1l3 1q3 1 5-1 1-3 1-4v-2h2z" fill="#d4aa80" fill-rule="evenodd" stroke="#d4aa80"/> <path d="m103 243 2-3h6q1 1 1 4v4l-3 1q-2 1-5-2-2-2-1-4z" fill="#8f8925" fill-rule="evenodd" stroke="#8f8925"/> <path d="m51 404-1-2v-8q0-8 2-10 1-2 4-1t4 2q2 1 2 9 0 9-2 11-2 3-5 2-3 0-4-3z" fill="#fcf9ee" fill-rule="evenodd" stroke="#fcf9ee"/> <path d="m89 193h1v1l-1 1v1h1q0 1 1 2 0 2 1 2v2h1v1h-1q-1 0-2 5 0 6 1 7t1 2h1v1h-1v2h1v5q1 0 1 4v4l-3 1q-3 1-5 4t-2 5 1 5l1 3v2h-1v1h-1v-1l-2 2v1h-1v-1h-1v-1h-2v-1h-1v-1h-2v-1h-1v-1q0-2-2-8l-1-5h1v-10q0-4 2-4t3-3 1-6q0-4 5-12 5-9 6-9z" fill="#eeae1e" fill-rule="evenodd" stroke="#eeae1e"/> <path d="m177 249v-1h4v1h1v1h1l1 1h1v1l1 1v1h-1v1h-1v1q-1 0 1 1 1 1 1 6t-2 5q-2 1-2 2v1h-1v1h-1l-4 2h-3v-7h1v-1q0-1 1-1v-3h1v-13h1zm-1 17q1-2 2-2 2 0 1 2t-2 2-1-2z" fill="#d8530f" fill-rule="evenodd" stroke="#d8530f"/> <path d="m487 146v12l1 8v7h-2v-1l-1-2q-1-2-2-8l-1-7v-11h1q1 0 1 1t2-2q0-3 1 3z" fill="#a3993e" fill-rule="evenodd" stroke="#a3993e"/> <path d="m248 268h2v3h1v1h-1v2h2l2 1q1 0 1 2 0 3 8 2 8 0 9 3 0 2 2 5 0 3 1 4l1 1h10l-1 2q-1 3 0 3t1 1 10 5q9 3 14 3 6 0 6-1t4-4q3-3 8-1 6 2 7-1l1-3 2-2h2v6h1l1 3q2 3 2 17v22h-2v1l-2 2v-1h-2q-3 0-3-1-1-1-1-3 0-1-3-2-3 0-4 2-1 3-4 4-4 0-17-2-12-2-26-3t-14 1v3h-1l-3-3v-1q0-1-2-7-2-7-8-35t-4-29z" fill="#fcd126" fill-rule="evenodd" stroke="#fcd126"/> <path d="m803 182h6v1q0 1-1 1-2 0-2 1t-4 2l-4 1-2 1-1 1h-3l-2 2h3l4-2 9-2q8-2 12-2 5 0 5 1h-1v1h-1q-1 0-5 4l-5 3v-1h-2l-1 1-2 1h-2l-2 1q-2 1-16 3l-13 4h-8v-1h-1v-1h1v-1h1v-1h1v-1h1v-1h1v-1h1v-1l10-5q9-5 10-6l2-1h2v-3h4q3 1 5 1z" fill="#858e38" fill-rule="evenodd" stroke="#858e38"/> <path d="m458 202h1l3 5q2 5 4 6l1 1h-1q-1 0-1 1h-1q0 1-1 1t-1-1-2-2q-3-1-3-2v-1h1q1 0 0-2v-4h-1v-1h1v-1z" fill="#a4ac4b" fill-rule="evenodd" stroke="#a4ac4b"/> <path d="m686 340h-1v-4q1-5 1-4 2 2 1 6-1 3-1 2z" fill="#cbe0bd" fill-rule="evenodd" stroke="#cbe0bd"/> <path d="m194 212h2l5-1h5v1h2l2 2q2 2 1 6l-1 4v1h-1l-1-1q0-2-1-2-1 1-1 3 0 3 1 4l1 1v1h1v1h-1q-1 0-3-3l-1-2h-1v-1q-1 0-4-3l-3-3h-1v-1h-1v-1h-1v-3q-1-2 1-3z" fill="#d75011" fill-rule="evenodd" stroke="#d75011"/> <path d="m541 332h9q0 1-9 3-9 1-22 2t-13-1v-1q0-1 1-1h1l1-1h12q11-1 20-1z" fill="#fb8d56" fill-rule="evenodd" stroke="#fb8d56"/> <path d="m550 329h2q0 1-2 1t-1 1l1 1h-9q-9 0-21 2l-12 1v-1q1 0 2-1l12-2q12-3 20-3 7 0 8 1z" fill="#ed5929" fill-rule="evenodd" stroke="#ed5929"/> <path d="m286 182h10v1h1q0 1 1 1v2q0 2 1 8 0 5-5 5-6 1-8-1t-14-2-12-2q1-2 4-4l3-2v2l1 3v1h5l1-1 2-1h1l1-1q1-1 2-3 0-2-1-3l-1-1 2-1q2-1 6-1z" fill="#f67d2a" fill-rule="evenodd" stroke="#f67d2a"/> <path d="m356 177 4 1v5q0 1-4 7-4 5-10 10l-6 5v-1h-2q-2 0-4-2h-2q0 1-1 1t-3-3q-1-4-7-6l-6-2h-4v-1h1v-1h2v-1h1v1h5l2-1 1-1h-12v-4h5v2h-1 16q-1-2 3 0h7-1v-2l2-1 1-1h-1v-1h1l1 1h2v-2l-4-4-3-2h-1l-3-2q-3-2-14-5t-13-4l-1-1v-1h-1v-1h-1l-1-1v-1l-4-2 11 1q11 1 15 3t6 4q1 2 6 2 4 0 8 1 4 2 5 5 0 4 1 4t4 1z" fill="#f2cda1" fill-rule="evenodd" stroke="#f2cda1"/> <path d="m479 143h2q0 1 1 1v1h1v1h-1v1q-1-1-13-1h-12v1l1 1v2h2v1h1v1h1l3 3q4 3 8 1 4 0 7-1h2l1 7q1 6 2 8l1 2v1l-1 1q-1 1 0 2v1h1v2h-1v-1q-1 0-3-2t-10-4h-9l-1 1h-1v1h-2v1h-1v1h-1v-2h1v-1h1v-1h1q1 0 2-1l1-1h1l-2-2h-2q-2 0-10-3l-7-2q0-1-3-2t-4-1h-19q-13 0-16 2t-7 8q-2 6-3 21l-1 15v-1l-2-2v-1h-1v-1h-1v-2l-4-11q-4-11-4-22 0-12 5-18 5-5 11-8 7-2 19-4 12 0 38 3t28 4zm-61 0-2 1h-6v-3h2l2-1h7q7-2 14 0 7 0 11 1t4 3q2 1-7 0-9 0-16-1t-9 0zm-33 11h-1v-3l1-2q1-1 5-2 4 0 0 4-4 3-5 3z" fill="#bb0b0a" fill-rule="evenodd" stroke="#bb0b0a"/> <path d="m228 249 2-5h2q1 1 1 4l1 3-8 11q-7 12-8 12v-2q0-3-2-5t-5-3l-3-1v-1h2v-4h1v1h1v1h2q1 0 6-1t6-3 2-7z" fill="#f4b742" fill-rule="evenodd" stroke="#f4b742"/> <path d="m148 168v1q-1 1-5 1t-4-2q-1-3 2-5 2-3 5-3t3 4l-1 4z" fill="#8c8827" fill-rule="evenodd" stroke="#8c8827"/> <path d="m184 226h3l1 1v1h1l3-1q2-1 4 0l1 1h1q1 0 2 1v2h1v2q0 1-2 5-1 3-1 4h1v1q0 1-1 1t-2-1q-1 0-1-1-1-1-4-2-3 0-3-3t-3-4l-3-1h-1v-1h-1v1l-1-2q0-1 1-2 2 0 2-1t2-1z" fill="#deb76d" fill-rule="evenodd" stroke="#deb76d"/> <path d="m897 239v-1l7 1q7 1 11 6 5 4 5 5v1h-1q-1 0-1-1t-2-1q-2-1-4 1l-2 1h-1q0-1 1-2 0-1-4 1l-4 2-1 1h-1v-9h-1v1h-1v1h-1v-2l1-2v-2q-1 0-1-1z" fill="#b8291e" fill-rule="evenodd" stroke="#b8291e"/> <path d="m315 73h-1q0 1-2 2-2 2-3 5l-1 3 2-1q1-2 2-2h1v1l-2 2v1h-1 3q3 0 5-3l2-3h2l-1 2-1 1v2h-1v1h-1l-1 1q-1 1 1 4t1 3q-1 1 0 4 1 4 2 14 1 9-3 16-2 6-8 10t-17 4-16-3-8-9-4-12q-1-7 1-10 0-4 4-10 4-5 12-9 7-3 15-4h8v-5q1-6 1-7 2-1 2 3 0 3 2 1 2-3 4-3 1 0 1 1zm-16 38q0-2 2-2t2 1 3 1q2 1 3 2 1 2-1 4-1 3-4 3-2 0-3-2t0-3q0-1-1-1-2-1-1-3zm3 19q2 0 3 2 0 2-4 4t-10 1q-7-1-3-2 3-1 7-3 5-2 7-2z" fill="#d81c1a" fill-rule="evenodd" stroke="#d81c1a"/> <path d="m514 154-8 11-2 2v2h-1v1h-1v1h-1v1h2q-1 1-1 2h-3v-1l-1-1v-1h-1v-1h2v-1h1l6-9 8-8v-1l2-2v-1h1l1-2q0-1 1-1 0-1 1-1 2-1-6 10z" fill="#a5ac4d" fill-rule="evenodd" stroke="#a5ac4d"/> <path d="m870 261v4q-1 1-4 1-4 0-4-3-1-3-2-3-2-1-1-3 1-3 6-1t5 5z" fill="#f89362" fill-rule="evenodd" stroke="#f89362"/> <path d="m525 179q0 1 1 2 0 1 1 9t-1 11-6 6-6 5q-1 2-2 2h-1v-1q1-1 0-3v-4q-1 0-3-1t-2-3l-1-1q1 0 1-1h1v-1q1 0 1-1h1v-1q1 0 1-1h1v-1q1 0 1-1h1v-1q1 0 1-1h1v-1l5-6q4-6 5-6z" fill="#f2dae0" fill-rule="evenodd" stroke="#f2dae0"/> <path d="m688 363v3q0 2-1 3 0 1-1 1-2 0-2-4l1-3h1q2-1 2 0z" fill="#f7e4ad" fill-rule="evenodd" stroke="#f7e4ad"/> <path d="m778 409h1l5 9q5 10 9 13t10 10q5 7 6 7v1h1v1h2l2-2h1v-1h1v-1h2v-1h1v-1h1l1-1h1v-3q0-2-1-4-1-1-1-8v-10l2-4v-2l2-2v-1h1v4h2v2h44q43 0 44-1h5v-1l2 2v7q0 8-1 9t-4 6-11 8l-8 3v1l1 1q1 2 1 8 0 7-3 10-2 2-9 6t-8 6q0 3-2 8-2 4-10 8t-19 4h-15q-5-2-16 0-11 0-16-1-4-1-9-4t-10-4l-5-2v-2h-1v-1h-2l-2-2h2v-1h1v-1l10 2q11 2 13 2t4 1l2 1h4v-2l-1-2v-2l-2-2v-1q0-1-5-7-4-6-22-30l-19-23v-1h-1v-1h1v-1h1l-1-1h-1v-2h1l1 1h3q2 2 7 0 5 0 6-2t1-3z" fill="#f8d896" fill-rule="evenodd" stroke="#f8d896"/> <path d="m169 157h2v1l2 1q1 1 0 4t-2 3h-10v-1l-1-1v-2l2-2q2-2 4-2h1l2-1z" fill="#493b1a" fill-rule="evenodd" stroke="#493b1a"/> <path d="m504 144h-2q-1 0-4 4l-2 4h-1v1h-1v-3q0-2-1-2l-1-1v-1q0-2 1-2v1l1 1v1h1v-1l3-1q2-1 4-1h2z" fill="#a6aa5b" fill-rule="evenodd" stroke="#a6aa5b"/> <path d="m786 114h2v1h1l5 6q4 5 5 6 1 0 2-3 1-2 2-2h1l-1 4q-1 3-1 6v2l3 5q3 5 5 0 4-5 4-2v3h-1l1 1v1q0 1-3 3l-2 1v1h-1l-1 1h-1v-1h-1v-1h-1v-1l-1-1q-1-2-2-2h-2v-3q0-1-1-1-2 0-2-2t-2-2q-1 0-1-1 1-1-1-4t-5-10q-3-6-3-5h2z" fill="#7d873e" fill-rule="evenodd" stroke="#7d873e"/> <path d="m267 188-3 2q-3 2-4 4 0 2 12 2t14 2 8 1q5 0 5-5-1-6-1-8-2-2-2-3v-1h1l2 2q0 1 1 0 2 0 3-2 2-1 2 2 1 4 3 5 3 1 4 0h2v1h-2v1h-1v1h4l6 2q6 2 9 5 2 2 4 3 2 2 4 2h2v2h-1q-1 0-3 2l-2 1 2 4q2 5 5 13t3 18-2 15-5 7-3 3h-1v1h-1l1 1q1 1 2 1h1v2h-2l-2-2h-1q-1 0-7-2-5 0-10-4l-9-3q-3-1-9 2-7 3-16 3h-17q-1 0-1-1h-1q0-1 1-1t-1-2l-6-6q-5-4-6-10l-1-6v-2l2-2v-2l5-6q5-6 7-7 3-1 3-2h1v-3h-1l-4-4q-4-4-7-9-4-6-4-15v-11l1-1h4q3 1 4 0 1-2 3 3l2 5h2q0 1 1 2zm62 13q0-1 1-1 2 1 2 2t-1 0q-1 0-2-1z" fill="#f0c08b" fill-rule="evenodd" stroke="#f0c08b"/> <path d="m589 148h1l1 1q1 1-2 1-3 2-6 6l-3 4h-1l-2 2h-4v1h1v1h2l-2 2h-1v1h-1v-1h-2q-1 0-6-2l-5-2-2-2h-1l-2-2h-1v-1h-1v-2h1v1h14q9 0 13-3 5-3 6-4 2-1 3-1z" fill="#d62b28" fill-rule="evenodd" stroke="#d62b28"/> <path d="m339 177v-3l3 2 4 4v2h-2l-1-1h-1q0-1-2-1-1 0-1-3z" fill="#f1a14f" fill-rule="evenodd" stroke="#f1a14f"/> <path d="m220 208h2l2 1q2 1 2 3v8h-6v-1h-1v-1h-1v-1q0-1-1-4v-3l1-1q0-1 2-1z" fill="#443922" fill-rule="evenodd" stroke="#443922"/> <path d="m818 239v1h1l2 1q1 1 0 7t-1 14 4 16l4 7q0-1-3-1t-9 2q-5 2-8 7l-4 5v-1h-1v-1q-1 0-5-4t-10-6l-6-1h-1l-1-1 1-2 1-1v-2l6-8q5-7 14-17 8-10 11-13 2-3 3-3t2 1z" fill="#fcf5f3" fill-rule="evenodd" stroke="#fcf5f3"/> <path d="m622 234h1l3 3q2 3 3 3h1l2 3q2 3 3 3v1h1v1l2 2v2h1v1h1v1l8-2q8 0 11 2l3 2v3l2 2q1 3 4 4 4 1 5 5 1 3 2 4-1 1-1 5-2 4-11 21-9 18-9 21t-2 4-2 3q1 1-1 1t-3 1v2h-1v1h-1v2l-1 1v2h-2v1l1 1v1h1v1h1v4h-1v1h-1v1h-2q-1 0-1-1-1-1-2-1t-3 2q-2 3-4 4h-1l-2 2h-3l-2 1q-1 1-8 1-6 0-7-3l-1-3q0-1-1-2v-2h-2v1q-1 0-3 1l-3 2h-1v1q-1 1-6 1h-6l-2-1v-1h-2q-1 0-2-1l-3-3q-1-3-5-6t-5-9l-2-6 3-23q4-24 8-40 4-17 8-21 3-5 8-5t7 2 4 1q3-1 7-3 5-2 9-2h5zm36 30-1 4-1 2q-2 2-4 1-2 0-2-5 0-4 2-6t4-1 2 5z" fill="#fbc004" fill-rule="evenodd" stroke="#fbc004"/> <path d="m790 150h4l4 2q4 3 5 4 1 2 1 4v1l-1 1-1 2h-11q-1 0-6-3l-5-4v2h-1l1-3q2-4 4-4 2-2 6-2zm9 6q-3-2 0-1t3 2-3-1z" fill="#282825" fill-rule="evenodd" stroke="#282825"/> <path d="m804 122 4 1q3 1 5 4 3 4 2 9l-1 5-1-1h1v-3q0-3-4 2-2 5-5 0l-3-5v-2q0-3 1-6v-3q1 0 1-1z" fill="#20211d" fill-rule="evenodd" stroke="#20211d"/> <path d="m751 116h1l3 2q3 1 6 4 4 4 5 4v2q0 1 1 0 1 0 2 1v2h-1q0 1-2 1l-1 1h-1q0-1-2-1-3 0-6-2l-4-2v-1h-1v-1h-1v-1h-1v-1h-1l-1-1h-1l1-3q1-2 2-3t2-1z" fill="#1b1d14" fill-rule="evenodd" stroke="#1b1d14"/> <path d="m226 262 8-11h1l1 1v4h4l1-1h1v1q0 1-1 1t-7 12q-7 11-12 18-4 7-18 15-13 8-18 9-4 1-6 2h-1v-1h-13q-1-1-4-2l-4-2h-2l2-1h1v-2h-1l-1-1h-2v-1h-1v-1l2-2h2l2-1h2q1-1 3-1l2-2 2 2q2 2 7 1 4 0 5-1l1-2h5q5 0 14-6 9-5 11-7l3-3v-1h1v-1q1 0 1-1v-1q1 0 1-1v-1q1 0 8-12z" fill="#f0af1e" fill-rule="evenodd" stroke="#f0af1e"/> <path d="m502 195-1 1h-1v1l-1 1h-1v1l-1 1q-1 1-5 6l-4 4h-1v1h-1v1l-1 1q-1 1 0 2l1 1q0 1-1 1h-1v-1h-3l-2-2h1v-3h1v-1l5-4q4-5 5-6v-1q1 0 1-1h2v-1l2-2 1 1h3q2-2 2-1z" fill="#a7a950" fill-rule="evenodd" stroke="#a7a950"/> <path d="m300 156 3 2q3 1 3 2v1h-1q-1-1-2-1-1-1-1 1-1 2-2 2-2 1-3 3t-2 3 0 1 0 4-3 4h-1l2 2h-1l-2 2h-4q-4 0-6 1l-2 1 1 1q1 1 1 3-1 2-2 3l-1 1h-1l-2 1-1 1h-5v-1l-1-3v-2l-2-2q-1 0-3-2t-6-4l-4-2-1 1h-1v-2l2-2v-2h1v-1l1-1q1-1 6-3 4-2 5-4 0-3 5-3 6-1 12-1 5 0 6-1 0-1 2 1 3 2 5 1 1 0 3-2 1-3 2-3zm-41 21q-1 0 0 1 1 2 0 0v-1z" fill="#f2c696" fill-rule="evenodd" stroke="#f2c696"/> <path d="m879 206h1l6 2q6 2 10 6t4 11-2 10l-2 3h1v1q0 1 1 1v2l-1 2v3q-1 1-1 3v3h-1v1h-1v-1h-1v-1h-1v-1q0-1-1-3l-1-2h-2v6l2 2v1l1 1q0 2-3 2h-2v2h1v1h1v1h4q4 1 2 6 0 5-1 6-1 2 1 1t3 1q1 1 2-4 0-4 2-2 1 1 3 4v-3q0-5 1-6t5 1 3 1-1-2l1-1q1 0 1-4t-2-6l-2-3 2-1q2-2 4-1l2 1h1l1 1 1 3q1 2 0 11t-4 13q-3 5-3 8 1 2 4 1 4-1 14 0 9 1 14 4 6 3 9 7t3 7q2 3 1 10t-4 13-9 10-7 5h-1l-1 1h-20l-1-1h-1q-1-1-3-2t-6 1l-5 2h-1l-2 1q-1 1-10 1l-9 1v-1h-1v-7l1-2q0-1 1-1 0-1 2-8l2-7h1v-1h1v1h1v1h1v1h1v1h1v2q2 1 2 2v1l2 2v3h1v1h1v-8l-1-1q-1-1-3-6-3-4-4-7l-2-2h1v-1l4-3q4-3 5-4t3-1h2l1-1 2-1h2l-4-1-3-1h-1v-2h-1l1-1h1v-1l-1-1v-1h-1v-1h-1v1h-1l-1 1h-1v2q1 2 1 3t-1 1v1h-3l-2 2h-3v-2l1-1 1-3q1-4 2-5l1-1v-1h1v-1h1v-1h-1v-1h-1v1h-1v1h-2v1h-1v1h-1v1h-1q0 1-2 3l-2 3v3h-1v1h-1v-1h-1v-1h-1v-2l-1-1q-1-2-1-6v-3h-1l-3 3v4h-2q-2 0-4 1l-2 1v-1q0-1-1-1t-1-1-6-1q-5-1-5 0 1 1-2 1-3-1-2 0t-1 1q-1 1-1 0t-4 0l-4 2v-1q0-1-1-1h-1l-3-3v-2q1-1 0-1-2-1-2-2-1 0 0-1l-4-7q-4-8-4-16t1-14 0-7l-2-1-1-1 2-4q2-3 2-5 1-1 3-2 3-1 5-4t3-4q0-2 1-2h4l2 1 3 3q2 2 3 1 2 0 2-1l-1-1v-1h3v1q1 1 5 0 3 0 4-1 0-2 1-2t1 2q0 1 1 1t1-2l1-2 1 4q1 3 6 7l5 4h1v1h1v1h1l2 2h3v-2h-2v-2h-1l-1-2q0-2 2-6 4-4 4-6v-2q0-1-1-1 0-1-3-1h-3v-2q-1-2-1-4 0-1 1-2zm-9 55v4q-1 1-4 1-4 0-4-3-1-3-2-3-2-1-1-3 1-3 6-1t5 5zm-16 26-6 1-4-2h-2v-1q0-1 4-1h4l1-1q1-1 5-3t7-2 3 2q0 3-2 5-3 1-10 2zm70 4q4-1 4 2t-4 4-4-2 4-4zm20 4q0-1 4 3 4 3 5 6l2 6q0 2-2 2-1-1-4-8-3-8-4-8t-1-1zm-19 5q2 0 2 1 1 1-1 2-1 1-2 0-2 0-1-1 1-2 2-2z" fill="#c31616" fill-rule="evenodd" stroke="#c31616"/> <path d="m223 198 1 1v1q0 1-1 2l-1 2v4h-2q-2 0-2 1l-1 1h-7v-1h-1v-1q-1 0-3-1t-2-2l1-1v-1q1-1 1-3l1-3h3q2 0 4-2 1-1 4-1 4 0 4 1t1 3z" fill="#f2a129" fill-rule="evenodd" stroke="#f2a129"/> <path d="m153 192h-8q-8 0-13-3l-4-3 3-2q3-1 3-2h2q2 2 6 2 3 0 6 3 3 2 3 3t1 1l1 1z" fill="#ddcba2" fill-rule="evenodd" stroke="#ddcba2"/> <path d="m684 201h2l4 1q4 0 6 4t3 4 1-1q1-1 2 0l-1 9q-1 8-3 14l-3 6h-1v1h-2q-1-1-6 4l-5 5h-1q-1 0-8 3l-6 3h-2v3h-2v-1l-3-2q-3-2-11-2l-8 2v-1h-1v-1h-1v-2l-2-2v-1h-1v-1h1v-2h2v-2h1v-1h1v-1h2v-1h1v-1h2l1-1 3 1q3 1 3 2v3h2v-1q0-1 2 0 1 2 6 1 4 0 4-3 0-4 1-4l1 1 2 1h2l3 1h3v-2h1v-1h1v-2h-9v-2q0-1-3-2-4-2-5-4l-1-2v-2q0-2 2-2 1 0 1-1 1 0 0-1l-1-1q-1-1-1-2v-2l3-2 4-3h2l2-1q3-1 3-3 1-1 1-2h2q3 0 4-1z" fill="#d54408" fill-rule="evenodd" stroke="#d54408"/> <path d="m818 165h-2q-3 0-3 1v1h-1q-1-1-4-1l-4-1v-2h2l1-1h4q5 0 5 1t1 1 1 1z" fill="#dfd5b3" fill-rule="evenodd" stroke="#dfd5b3"/> <path d="m112 239 2-1 2 2q2 2 10 2 7 0 8 1 0 1 2 1h3v1h1v1h-1v1h1v1l-1 1v1h-5q-4 0-12 2h-8v1l-1 1q-1 0 0-2t0-3l-1-1v-4q0-3-1-4h-1l2-1z" fill="#e4a52f" fill-rule="evenodd" stroke="#e4a52f"/> <path d="m720 370v-1l1 3q1 2 3 2 1 0 1 1-1 0-1 3 0 2-2 1l-6-2q-4-1-6-3l-1-2h-3v-1q1-1 3 0l3 1 2 1h2v-2h4v-1z" fill="#e1bb54" fill-rule="evenodd" stroke="#e1bb54"/> <path d="m896 292v-1h1v1h1v1l1 1v1h-1l-1 1h1v2h-4q0-1-1-3v-2h1l1-1h1z" fill="#e98457" fill-rule="evenodd" stroke="#e98457"/> <path d="m417 183v-4h1l1 1h1v1h1v1h2v1h1v1l8 8q6 8 8 11l2 3v1h1v1h2l-1 2q0 1-1 5v4h-2v-1h-1v-2l-1-2-1-1v-1q0-1-2-4l-2-4v-1l-2-2v-2h-1v-1h-2v1h1v3l2 2v2l2 3q2 3 2 5v1l2 2v2l1 1h-1v2h-2l-2 2h-2v-2h-1l-1-1v-2l-1-1q-1-1-1-2t-6-15l-4-14-1-4zm10 12q0-1 1-1t1 1-1 1-1-1z" fill="#879334" fill-rule="evenodd" stroke="#879334"/> <path d="m660 204-1-1 4 1q4 2 6 2h2v2h-1l-4 3-3 2v-1l-1-1v-4l-1-1q-1-1-1-2z" fill="#d8b05b" fill-rule="evenodd" stroke="#d8b05b"/> <path d="m514 191h1l-5 6q-4 6-2 7 2 2 3 2v1h-1q-1 1-4 0-4-1-4-2-1-1 0-1t4-4l2-4h1l5-5z" fill="#aeb266" fill-rule="evenodd" stroke="#aeb266"/> <path d="m168 200v2q0 1-1 2-1 0-5 1l-4 1v-1l-1-3v-2h1v-1l2-1h6q2 0 2 2z" fill="#4b3d20" fill-rule="evenodd" stroke="#4b3d20"/> <path d="m810 237v1h-1v1h-1v1h-1v1h-1v1h-2v-2l1-2 1-1v-1h1v-1h1l7-9q7-10 10-12t3 1q0 4-9 13-9 8-9 9z" fill="#fb9157" fill-rule="evenodd" stroke="#fb9157"/> <path d="m842 157 1-1 6 1q5 0 6 1-1 0-2 2l-2 2v1h-1v2h-1v1h-1v1q-1 1-3 1h-7q-3 0-4 1v4l-1 3-1 1v1h1l1 2q0 1-2 4l-2 4h-1v1h-1v2h-1v1h-1v1h-1v1h-3v-7h2q1 0 0-3v-9l1-3 1-2v-1h1v-1h1v-1h1v-1h1v-2h1v-2h-1v-1h2l4-2q4-1 4-2h2z" fill="#c0271d" fill-rule="evenodd" stroke="#c0271d"/> <path d="m485 178v1l1 1v13l-2 4q-2 4-2 5v2h-1l-1 1h-1v-4q-1-4-1-6l-1-2v-1l-3-3-3-2h-3q-3 1-4 3l-2 2h-2v-2l-1-1v-1l-1-1v-2l-2-2v-2h-1v-1h1v-2l1-1v-1h1v-1h1v-1h2v-1h1l1-1h9q8 2 10 4t3 2z" fill="#eccfd4" fill-rule="evenodd" stroke="#eccfd4"/> <path d="m159 276 3-1 2 1q2 0 2 2v4h-1v1h-1v1h-1l-1 1q-1 1-4 1-2 0-3-2l-1-2v-2q0-1 2-2 0-1 3-2z" fill="#8e8a29" fill-rule="evenodd" stroke="#8e8a29"/> <path d="m152 226h2l2 2v3q1 3 0 3t-1 2v2h-3q-2 2-3 1t-3-2l-3-1-1-1h-1v-1h-1v-1h1v-1h3v-2l-2-2v-1h-1q0-1 1-1h3q3 1 3 0t2-1q1 1 2 1z" fill="#888a24" fill-rule="evenodd" stroke="#888a24"/> <path d="m590 148h15l-1 1q-1 1 3 1h4l7 2h16q8 0 10 1l3 1h3v1h1v1h2v2h-11q-11 0-16-1t-20-1q-14 0-15 2t-6 4l-6 2h-5v-1h-1v-1h4l2-2h1l3-4q3-4 6-6 3 0 2-1l-1-1z" fill="#f88f60" fill-rule="evenodd" stroke="#f88f60"/> <path d="m506 170h1l1-1h2v1h8l7 2h-1v2h1l-9 5q-8 4-8 5t-1 1h-1v-1q0-1 2-2 2-2-1-3-2-1-5-1h-3l-1 1h-2v-1h1v-1h1v-1h1l2-2h1q0-1 1-2h1v-1h1v-1h1z" fill="#e9d0d1" fill-rule="evenodd" stroke="#e9d0d1"/> <path d="m465 225v-1l1 1q2 0 2 1t1 1v1q0 2 2 1 1 0 3-2 1-3 2-3v5h2v2h1v1h3-1l1 1h1v1h-1l-2 1q-2 1-1 4l1 3h1v2l1 1 1 4q1 4 0 4v1h1v2l-1 2v1h-1v1h-1v1h-3l-2-1h-3q-1 0-4-2t-2-2 1-1-3-3q-3-3-9-10l-4-7v-5h1v-1h1v-2l1-1h1v-1h5v1h1q2 0 2-1h1z" fill="#f0e9d2" fill-rule="evenodd" stroke="#f0e9d2"/> <path d="m194 190 1 2-1 2q0 1-2-1-2-1-2-3t-2-2q-2-1 0-3 0-2 3 0 2 3 3 5z" fill="#eeaf2c" fill-rule="evenodd" stroke="#eeaf2c"/> <path d="m171 222-1 2v6q1 3 0 3l-1-1h-1l-1-1q-1 0-1 1v2l-1 1v1h-2v-1q-1-1-1-3 0-1-1-1t-1 1-1 0l-1-1v-4h-1v-1h-1v2l-2-2v-2h1l1-1v1h1l2-2h1v-1q1-1 4-2 4 0 4 1t2 1l1 1z" fill="#8c8d25" fill-rule="evenodd" stroke="#8c8d25"/> <path d="m886 216q-1 0-2 2l-1 1h-1q-1-1-2-1l-1-1v-1q-1 0 0-1v-1h3q3 0 3 1 1 0 1 1z" fill="#d47955" fill-rule="evenodd" stroke="#d47955"/> <path d="m789 400h1l-6 1h-6v5l1 2v1h-1q0 1-1 3t-6 2q-5 2-8 1l-3-1q0-1-1-1v-1q-1 0-3-3l-2-3h-1v-1h-1v-1h-1v-2h2v1h1v1h11q8-2 9-2t1-1 7-1h7z" fill="#f5c564" fill-rule="evenodd" stroke="#f5c564"/> <path d="m40 295v-15h4v1l1 1v1l4 1q4 0 4 1 1 0 1 1v9q0 7 1 9 1 3 2 3 1 1 3-1t2-11v-11h-1v-1l7 3q7 2 8 3 0 1 3 1h12-1l-2-3-1-2 11 8 12 9h2l1 2q1 2 2 2v1h1v1l1 1v1h-3q-2 1-2 2t-1 1-1 1v13h1v1h1v1h1v1h2l2-2h1v-2l1-1q1-1 0-5v-5h1q1-1 1-2v-2h1v-1h9l2 2h1l2 1 1 1h-2q-1 1-1 2v29h-1v1h-5q-1 0-10-1-10-1-12-2l-1-1q-1-1-2-3-2-3-7-3-4 0-5 2l-2 4q-1 3-4 4h-3v1h-2v-1l-20-1-19-1v-1l-1-1v-16q1 0 1-1h1q0-1 1-1 1-1 1-6 0-4-2-6-3-2-2-17zm35 37-1 1q-1 0-1-5 0-6 1-6 2 0 2 5t-1 5z" fill="#fbc709" fill-rule="evenodd" stroke="#fbc709"/> <path d="m370 395 6-5-4 4q-3 4-6 6l-2 4-1 1q0 1-1 1h-1v-1q1-1 1-2l2-1v-1q0-1 6-6z" fill="#f3cf83" fill-rule="evenodd" stroke="#f3cf83"/> <path d="m40 325h1v1q-1 1-1 8v8l1 1v1l19 1 20 1v1h-40v5h-1v-14q0-13 1-13z" fill="#f5d152" fill-rule="evenodd" stroke="#f5d152"/> <path d="m518 143 1 1v2h-1v1l-1 1h-1v1l-1 1h-1v2l-8 8-6 9h-1v1h-6l-2 2h-2v1h-1v-7l-1-8v-7h1v-3h1v-1h1v1h3q1 0 1 2v3h1v-1h1l2-4q3-4 4-4h2l2 2q2 1 3 2 0 2 1 2h2l4-6h1l1-1z" fill="#7d872c" fill-rule="evenodd" stroke="#7d872c"/> </svg>