<svg xmlns="http://www.w3.org/2000/svg" xmlns:xlink="http://www.w3.org/1999/xlink" version="1.1" width="256" height="256" viewBox="0 0 256 256" xml:space="preserve">
<g style="stroke: none; stroke-width: 0; stroke-dasharray: none; stroke-linecap: butt; stroke-linejoin: miter; stroke-miterlimit: 10; fill: none; fill-rule: nonzero; opacity: 1;" transform="translate(1.4065934065934016 1.4065934065934016) scale(2.81 2.81)">
	<circle cx="28.356" cy="74.01599999999999" r="6.216" style="stroke: none; stroke-width: 1; stroke-dasharray: none; stroke-linecap: butt; stroke-linejoin: miter; stroke-miterlimit: 10; fill: rgb(116,139,150); fill-rule: nonzero; opacity: 1;" transform="  matrix(1 0 0 1 0 0) "/>
	<circle cx="72.966" cy="74.01599999999999" r="6.216" style="stroke: none; stroke-width: 1; stroke-dasharray: none; stroke-linecap: butt; stroke-linejoin: miter; stroke-miterlimit: 10; fill: rgb(116,139,150); fill-rule: nonzero; opacity: 1;" transform="  matrix(1 0 0 1 0 0) "/>
	<path d="M 89.563 21.797 c -0.372 -0.458 -0.93 -0.723 -1.519 -0.723 H 15.423 l -0.965 -4.472 c -0.856 -3.962 -4.419 -6.838 -8.473 -6.838 H 1.957 C 0.876 9.764 0 10.64 0 11.721 s 0.876 1.957 1.957 1.957 h 4.028 c 2.224 0 4.178 1.578 4.648 3.751 l 1.299 6.015 l 6.668 30.885 c 1.013 4.688 5.228 8.09 10.023 8.09 h 44.83 c 4.824 0 9.045 -3.427 10.036 -8.148 l 6.47 -30.838 C 90.079 22.856 89.934 22.255 89.563 21.797 z" style="stroke: none; stroke-width: 1; stroke-dasharray: none; stroke-linecap: butt; stroke-linejoin: miter; stroke-miterlimit: 10; fill: rgb(158,190,204); fill-rule: nonzero; opacity: 1;" transform=" matrix(1 0 0 1 0 0) " stroke-linecap="round"/>
	<path d="M 50.943 51.745 c -0.828 0 -1.5 -0.672 -1.5 -1.5 V 31.6 c 0 -0.829 0.672 -1.5 1.5 -1.5 s 1.5 0.671 1.5 1.5 v 18.646 C 52.443 51.073 51.771 51.745 50.943 51.745 z" style="stroke: none; stroke-width: 1; stroke-dasharray: none; stroke-linecap: butt; stroke-linejoin: miter; stroke-miterlimit: 10; fill: rgb(255,255,255); fill-rule: nonzero; opacity: 1;" transform=" matrix(1 0 0 1 0 0) " stroke-linecap="round"/>
	<path d="M 66.198 51.745 c -0.059 0 -0.117 -0.003 -0.176 -0.01 c -0.823 -0.097 -1.412 -0.842 -1.316 -1.664 l 2.179 -18.646 c 0.097 -0.823 0.853 -1.409 1.664 -1.315 c 0.823 0.096 1.412 0.841 1.316 1.664 l -2.179 18.645 C 67.597 51.183 66.948 51.745 66.198 51.745 z" style="stroke: none; stroke-width: 1; stroke-dasharray: none; stroke-linecap: butt; stroke-linejoin: miter; stroke-miterlimit: 10; fill: rgb(255,255,255); fill-rule: nonzero; opacity: 1;" transform=" matrix(1 0 0 1 0 0) " stroke-linecap="round"/>
	<path d="M 35.688 51.745 c -0.715 0 -1.348 -0.513 -1.476 -1.241 l -3.269 -18.646 c -0.143 -0.816 0.402 -1.593 1.219 -1.736 c 0.816 -0.141 1.593 0.403 1.736 1.219 l 3.269 18.646 c 0.143 0.815 -0.402 1.593 -1.219 1.736 C 35.862 51.738 35.774 51.745 35.688 51.745 z" style="stroke: none; stroke-width: 1; stroke-dasharray: none; stroke-linecap: butt; stroke-linejoin: miter; stroke-miterlimit: 10; fill: rgb(255,255,255); fill-rule: nonzero; opacity: 1;" transform=" matrix(1 0 0 1 0 0) " stroke-linecap="round"/>
</g>
</svg>