<svg xmlns="http://www.w3.org/2000/svg" xmlns:xlink="http://www.w3.org/1999/xlink" version="1.1" width="256" height="256" viewBox="0 0 256 256" xml:space="preserve">
<g style="stroke: none; stroke-width: 0; stroke-dasharray: none; stroke-linecap: butt; stroke-linejoin: miter; stroke-miterlimit: 10; fill: none; fill-rule: nonzero; opacity: 1;" transform="translate(1.4065934065934016 1.4065934065934016) scale(2.81 2.81)">
	<path d="M 42.858 54.859 c -0.343 -0.143 -3.172 0.112 -3.689 0.238 c -2.54 0.619 -2.255 2.464 -3.391 4.462 c -0.368 0.648 -2.303 2.87 -2.38 3.094 c -0.237 0.692 0.065 1.374 -0.595 2.499 c -1.008 1.717 -3.997 2.835 -4.165 4.998 c -0.14 1.801 1.695 3.447 2.499 4.998 c 0.764 1.475 3.132 7.785 4.462 8.151 c 0.372 0.102 1.214 -0.148 1.547 0.119 c 0.503 0.403 -0.274 1.474 0.357 2.023 c 0.598 0.52 4.04 0.097 4.998 0.238 c 0.289 -0.172 -1.264 -2.652 -1.666 -2.975 c -0.581 -0.468 -2.441 -1.166 -2.975 -1.547 c -0.895 -0.639 -4.898 -6.457 -5.295 -7.556 c -1.293 -3.579 0.726 -3.344 2.915 -5.057 C 39.297 65.557 45.534 60.224 42.858 54.859 z" style="stroke: none; stroke-width: 1; stroke-dasharray: none; stroke-linecap: butt; stroke-linejoin: miter; stroke-miterlimit: 10; fill: rgb(0,0,0); fill-rule: nonzero; opacity: 1;" transform=" matrix(1 0 0 1 0 0) " stroke-linecap="round"/>
	<path d="M 66.895 52.527 c 0.178 0.013 2.576 1.341 3.213 1.547 c 1.602 0.518 9.081 2.02 9.698 2.915 c 0.502 0.728 -0.568 4.209 -1.071 4.879 c -0.225 0.3 -0.943 0.473 -1.071 0.833 c -0.106 0.297 0.162 1.299 -0.535 1.487 c -0.704 0.191 -0.803 -0.387 -1.19 -0.476 c -1.655 -0.381 -2.334 2.154 -2.796 3.272 c 1.206 0.834 6.484 -0.543 7.14 -1.428 c 0.692 -0.933 1.169 -4.939 1.666 -6.307 c 0.126 -0.348 0.893 -0.977 1.071 -1.666 c 0.842 -3.262 -1.853 -3.371 -3.57 -5.355 C 75.264 52.891 71.08 52.99 66.895 52.527 z" style="stroke: none; stroke-width: 1; stroke-dasharray: none; stroke-linecap: butt; stroke-linejoin: miter; stroke-miterlimit: 10; fill: rgb(0,0,0); fill-rule: nonzero; opacity: 1;" transform=" matrix(1 0 0 1 0 0) " stroke-linecap="round"/>
	<path d="M 88.612 52.301 c -0.183 -1.302 0.52 -2.219 -0.595 -3.689 c -0.957 -1.261 -1.81 -0.772 -2.796 -1.13 c -3.261 -1.185 -6.387 -2.542 -9.936 -2.796 c 1.612 -2.701 1.752 -5.313 0.595 -8.211 c -1.997 -5.001 -4.344 -6.162 -4.522 -12.613 c -0.032 -1.154 0.535 -3.348 0.476 -3.927 c -0.025 -0.249 -0.897 -1.48 -0.714 -2.023 c 0.69 1.318 1.373 2.346 2.915 2.677 c 0.377 0.081 1.247 -0.141 1.309 -0.119 c 0.054 0.019 0.221 0.598 0.476 0.714 c 1.156 0.524 2.58 0.594 3.689 1.547 c 1.374 1.181 0.871 2.431 3.332 2.618 c 1.475 0.112 1.815 -0.014 2.558 -1.249 c 1.771 -2.945 0.221 -3.2 -1.19 -5.117 c -2.161 -2.935 -4.161 -6.035 -6.664 -8.687 c 1.663 -0.281 3.131 0.909 3.629 2.439 c 0.877 -2.322 -0.26 -4.495 -2.499 -5.355 c -0.374 -0.144 -2.264 -0.431 -2.32 -0.535 c -0.187 -0.345 0.324 -2.479 0.179 -2.558 c -0.683 0.396 -1.25 0.925 -1.547 1.666 l -0.119 -1.666 c -1.314 0.944 -2.415 2.221 -2.856 3.808 c -0.303 -0.312 0.204 -1.417 0.178 -1.487 c -0.14 -0.394 -4.073 -0.547 -4.165 -0.357 c 0.666 0.361 1.946 1.028 1.844 1.963 c -3.034 -2.606 -8.118 -0.017 -10.412 2.558 c 1.195 -0.269 2.786 -0.269 3.629 0.773 c -4.204 -0.848 -7.409 2.188 -8.984 5.771 h 2.261 c -2.684 0.641 -3.483 3.202 -4.046 5.593 c 1.294 -1.062 2.952 -2.909 4.76 -1.904 c -3.833 1.536 -5.349 6.13 -7.14 9.52 l 0.238 0.119 c 1.13 -1.134 3.195 -1.487 4.641 -0.833 c -1.333 0.465 -2.365 0.704 -3.332 1.785 c -2.239 2.506 -2.544 3.036 -6.247 3.748 c -7.559 1.453 -14.326 -0.089 -20.407 6.366 c -0.214 0.227 -0.925 1.461 -1.011 1.487 c -0.189 0.058 -1.955 -0.455 -2.38 -0.476 C 14.833 42.397 9.21 45.553 8.053 52.42 c -0.499 2.959 0.35 8.516 -0.952 10.828 c -1.38 2.451 -6.083 2.521 -5.831 -0.833 c 0.023 -0.3 0.557 -0.997 0.297 -1.249 c -2.239 2.364 -2.078 4.989 0.476 7.021 c 3.881 3.087 8.42 1.327 10.233 -2.975 c 0.221 1.09 -0.282 2.239 -1.011 3.034 c 0.721 0.158 1.941 -0.775 2.439 -1.249 c 2.111 -2.01 2.959 -5.571 2.439 -8.389 c -0.333 -1.806 -1.953 -3.121 -1.904 -4.998 l 0.178 -0.178 c 0.142 0.573 3.079 2.553 3.391 2.082 c -4.172 -4.163 -1.293 -12.561 5.117 -10.471 c -1.07 3.17 -0.88 6.657 -0.119 9.877 c 0.7 2.961 2.384 4.395 0.357 7.497 c -1.071 1.638 -4.555 3.725 -4.76 5.474 c -0.092 0.786 0.212 1.574 0.119 2.38 c -0.308 2.662 -3.113 8.922 -2.856 10.828 c 0.206 1.529 2.102 2.448 2.142 2.618 c 0.072 0.31 -0.553 1.181 0.06 1.725 c 0.557 0.496 4.117 0.162 5.057 0.178 c 0.082 -0.098 -1.076 -2.123 -1.19 -2.261 c -0.747 -0.902 -2.445 -1.107 -2.737 -2.499 c -0.18 -0.859 0.389 -5.47 0.595 -6.545 c 1.411 -7.347 5.044 -6.091 10.055 -9.698 c 4.121 -2.967 6.899 -7.256 7.378 -12.375 l 0.238 2.618 c 1.676 -0.844 4.449 -1.258 6.307 -1.071 c 6.601 0.664 11.018 1.722 17.849 -0.119 c 0.916 -0.247 5.181 -2.163 5.474 -2.142 c 4.185 0.463 8.369 0.364 12.554 -0.297 c 1.454 -0.042 5.665 -0.997 6.545 0.238 c 0.575 0.808 1.172 5.735 1.071 6.783 c -0.067 0.698 -0.679 1.303 -0.595 1.904 c 0.057 0.409 0.722 0.738 0.595 1.428 c -0.174 0.952 -1.114 0.563 -1.368 0.654 c -1.672 0.6 -1.191 3.283 -1.487 4.7 c 1.976 0.252 5.399 -3.509 5.712 -5.117 C 90.345 59.64 88.948 54.693 88.612 52.301 z" style="stroke: none; stroke-width: 1; stroke-dasharray: none; stroke-linecap: butt; stroke-linejoin: miter; stroke-miterlimit: 10; fill: rgb(0,0,0); fill-rule: nonzero; opacity: 1;" transform=" matrix(1 0 0 1 0 0) " stroke-linecap="round"/>
</g>
</svg>