<svg xmlns="http://www.w3.org/2000/svg" xmlns:xlink="http://www.w3.org/1999/xlink" version="1.1" width="256" height="256" viewBox="0 0 256 256" xml:space="preserve">
<g style="stroke: none; stroke-width: 0; stroke-dasharray: none; stroke-linecap: butt; stroke-linejoin: miter; stroke-miterlimit: 10; fill: none; fill-rule: nonzero; opacity: 1;" transform="translate(1.4065934065934016 1.4065934065934016) scale(2.81 2.81)">
	<path d="M 1.989 90.011 c -0.512 0 -1.024 -0.195 -1.414 -0.586 c -0.781 -0.781 -0.781 -2.047 0 -2.829 l 17.311 -17.311 c 0.78 -0.781 2.048 -0.781 2.829 0 c 0.781 0.781 0.781 2.047 0 2.829 L 3.404 89.425 C 3.014 89.816 2.501 90.011 1.989 90.011 z" style="stroke: none; stroke-width: 1; stroke-dasharray: none; stroke-linecap: butt; stroke-linejoin: miter; stroke-miterlimit: 10; fill: rgb(0,0,0); fill-rule: nonzero; opacity: 1;" transform=" matrix(1 0 0 1 0 0) " stroke-linecap="round"/>
	<path d="M 2.81 77.773 c -0.512 0 -1.024 -0.195 -1.414 -0.586 c -0.781 -0.781 -0.781 -2.047 0 -2.829 l 10.781 -10.781 c 0.78 -0.781 2.047 -0.781 2.829 0 c 0.781 0.781 0.781 2.047 0 2.829 L 4.225 77.187 C 3.835 77.577 3.322 77.773 2.81 77.773 z" style="stroke: none; stroke-width: 1; stroke-dasharray: none; stroke-linecap: butt; stroke-linejoin: miter; stroke-miterlimit: 10; fill: rgb(0,0,0); fill-rule: nonzero; opacity: 1;" transform=" matrix(1 0 0 1 0 0) " stroke-linecap="round"/>
	<path d="M 14.227 89.19 c -0.512 0 -1.024 -0.195 -1.414 -0.586 c -0.781 -0.781 -0.781 -2.047 0 -2.829 l 10.781 -10.781 c 0.78 -0.781 2.047 -0.781 2.829 0 s 0.781 2.047 0 2.829 L 15.642 88.604 C 15.251 88.994 14.739 89.19 14.227 89.19 z" style="stroke: none; stroke-width: 1; stroke-dasharray: none; stroke-linecap: butt; stroke-linejoin: miter; stroke-miterlimit: 10; fill: rgb(0,0,0); fill-rule: nonzero; opacity: 1;" transform=" matrix(1 0 0 1 0 0) " stroke-linecap="round"/>
	<path d="M 87.993 2.902 c -0.194 -0.387 -0.508 -0.7 -0.895 -0.894 C 79.851 -1.618 68.035 -0.264 54.68 5.721 c -0.016 0.007 -0.028 0.019 -0.044 0.026 c -6.421 2.881 -12.685 6.611 -18.109 10.72 l -11.965 0.291 c -1.58 0.039 -3.129 0.495 -4.478 1.32 L 2.952 28.554 c -1.729 1.057 -2.788 2.897 -2.832 4.923 c -0.044 2.026 0.933 3.911 2.614 5.043 l 12.264 8.254 l -2.031 9.787 c -0.137 0.66 0.068 1.344 0.545 1.821 l 18.107 18.106 c 0.379 0.379 0.889 0.586 1.414 0.586 c 0.135 0 0.271 -0.014 0.406 -0.042 l 9.777 -2.028 l 8.235 12.235 c 1.107 1.644 2.934 2.615 4.91 2.615 c 0.044 0 0.088 -0.001 0.132 -0.002 c 2.026 -0.044 3.866 -1.103 4.923 -2.832 l 10.475 -17.132 c 0.824 -1.348 1.282 -2.896 1.32 -4.479 l 0.29 -11.895 c 4.12 -5.433 7.861 -11.71 10.749 -18.146 c 0.008 -0.017 0.021 -0.03 0.028 -0.047 C 90.263 21.962 91.617 10.146 87.993 2.902 z M 60.174 44.68 c -1.983 1.983 -4.621 3.075 -7.426 3.075 c -2.805 0 -5.443 -1.092 -7.426 -3.075 c -4.095 -4.096 -4.095 -10.759 0 -14.853 c 1.984 -1.984 4.621 -3.076 7.426 -3.076 c 2.805 0 5.443 1.092 7.426 3.076 c 1.984 1.983 3.076 4.621 3.076 7.426 C 63.25 40.058 62.158 42.696 60.174 44.68 z" style="stroke: none; stroke-width: 1; stroke-dasharray: none; stroke-linecap: butt; stroke-linejoin: miter; stroke-miterlimit: 10; fill: rgb(0,0,0); fill-rule: nonzero; opacity: 1;" transform=" matrix(1 0 0 1 0 0) " stroke-linecap="round"/>
</g>
</svg>